<mxfile host="app.diagrams.net" modified="2023-12-22T08:21:57.677Z" agent="Mozilla/5.0 (Windows NT 10.0; Win64; x64) AppleWebKit/537.36 (KHTML, like Gecko) Chrome/120.0.0.0 Safari/537.36" etag="zpgQ634YAgQ2uYt0aZwE" version="22.1.11" type="github">
  <diagram name="Page-1" id="9361dd3d-8414-5efd-6122-117bd74ce7a7">
    <mxGraphModel dx="2087" dy="1048" grid="1" gridSize="10" guides="1" tooltips="1" connect="1" arrows="1" fold="1" page="0" pageScale="1.5" pageWidth="826" pageHeight="1169" background="none" math="0" shadow="0">
      <root>
        <mxCell id="0" />
        <mxCell id="1" parent="0" />
        <mxCell id="20" value="" style="fillColor=#CCD5EB" parent="1" vertex="1">
          <mxGeometry x="140" y="410" width="1460" height="390" as="geometry" />
        </mxCell>
        <mxCell id="81" value="" style="edgeStyle=elbowEdgeStyle;elbow=horizontal;endArrow=none;dashed=1" parent="1" edge="1">
          <mxGeometry x="1460" y="437.8935185185186" width="100" height="100" as="geometry">
            <mxPoint x="1354.5" y="610" as="sourcePoint" />
            <mxPoint x="1354.5" y="770" as="targetPoint" />
          </mxGeometry>
        </mxCell>
        <mxCell id="2" value="" style="fillColor=#CC4125;strokeColor=#660000" parent="1" vertex="1">
          <mxGeometry x="200" y="150" width="10" height="130" as="geometry" />
        </mxCell>
        <mxCell id="4" value=":dialog" style="shadow=1;fillColor=#A2C4C9;strokeColor=none" parent="1" vertex="1">
          <mxGeometry x="152.5" y="60" width="105" height="50" as="geometry" />
        </mxCell>
        <mxCell id="6" value="" style="fillColor=#CC4125;strokeColor=#660000" parent="1" vertex="1">
          <mxGeometry x="342.5" y="180" width="10" height="80" as="geometry" />
        </mxCell>
        <mxCell id="7" value="&lt;&lt;javascript&gt;&gt;&#xa;:Comments" style="shadow=1;fillColor=#A2C4C9;strokeColor=none" parent="1" vertex="1">
          <mxGeometry x="295" y="60" width="105" height="50" as="geometry" />
        </mxCell>
        <mxCell id="8" value="" style="edgeStyle=none;endArrow=none;dashed=1" parent="1" source="7" target="6" edge="1">
          <mxGeometry x="272.3350694444445" y="165" width="100" height="100" as="geometry">
            <mxPoint x="347.2588734567901" y="110" as="sourcePoint" />
            <mxPoint x="347.5761959876544" y="165" as="targetPoint" />
          </mxGeometry>
        </mxCell>
        <mxCell id="9" value="validate()" style="edgeStyle=none;verticalLabelPosition=top;verticalAlign=bottom" parent="1" edge="1">
          <mxGeometry x="220" y="92" width="100" height="100" as="geometry">
            <mxPoint x="210" y="179.5" as="sourcePoint" />
            <mxPoint x="340" y="179.5" as="targetPoint" />
          </mxGeometry>
        </mxCell>
        <mxCell id="11" value="" style="edgeStyle=none;verticalLabelPosition=top;verticalAlign=bottom;endArrow=none;startArrow=classic;dashed=1" parent="1" edge="1">
          <mxGeometry x="220" y="172.25887345679013" width="100" height="100" as="geometry">
            <mxPoint x="210" y="259.7588734567901" as="sourcePoint" />
            <mxPoint x="340" y="259.7588734567901" as="targetPoint" />
          </mxGeometry>
        </mxCell>
        <mxCell id="12" value="" style="edgeStyle=none;verticalLabelPosition=top;verticalAlign=bottom;labelPosition=left;align=right;endArrow=none;startArrow=classic;dashed=1" parent="1" edge="1">
          <mxGeometry x="110" y="179.75887345679013" width="100" height="100" as="geometry">
            <mxPoint x="110" y="279.7588734567901" as="sourcePoint" />
            <mxPoint x="200" y="279.7588734567901" as="targetPoint" />
          </mxGeometry>
        </mxCell>
        <mxCell id="13" value="&lt;&lt;create&gt;&gt;" style="edgeStyle=none;verticalLabelPosition=top;verticalAlign=bottom;dashed=1" parent="1" edge="1">
          <mxGeometry x="385.45524691358025" y="113.91550925925924" width="100" height="100" as="geometry">
            <mxPoint x="352.5" y="201.20563271604937" as="sourcePoint" />
            <mxPoint x="462.5" y="201.20563271604937" as="targetPoint" />
          </mxGeometry>
        </mxCell>
        <mxCell id="15" value="&lt;&lt;javascript&gt;&gt;&#xa;:Proxy" style="shadow=1;fillColor=#A2C4C9;strokeColor=none" parent="1" vertex="1">
          <mxGeometry x="462.2839506172839" y="169.99999999999997" width="105" height="50" as="geometry" />
        </mxCell>
        <mxCell id="16" value="" style="edgeStyle=none;endArrow=none" parent="1" source="15" target="17" edge="1">
          <mxGeometry x="437.042824074074" y="270" width="100" height="100" as="geometry">
            <mxPoint x="514.542824074074" y="219.99999999999997" as="sourcePoint" />
            <mxPoint x="514.542824074074" y="239.99999999999997" as="targetPoint" />
          </mxGeometry>
        </mxCell>
        <mxCell id="17" value="" style="fillColor=#CC4125;strokeColor=#660000" parent="1" vertex="1">
          <mxGeometry x="509.7839506172839" y="244.3942901234568" width="10" height="130" as="geometry" />
        </mxCell>
        <mxCell id="19" value="&lt;&lt;ajax&gt;&gt;" style="edgeStyle=elbowEdgeStyle;elbow=vertical;verticalLabelPosition=top;verticalAlign=bottom" parent="1" source="6" target="17" edge="1">
          <mxGeometry x="350" y="290" width="100" height="100" as="geometry">
            <mxPoint x="350" y="390" as="sourcePoint" />
            <mxPoint x="450" y="290" as="targetPoint" />
          </mxGeometry>
        </mxCell>
        <mxCell id="21" value="" style="fillColor=#CC4125;strokeColor=#660000" parent="1" vertex="1">
          <mxGeometry x="670" y="269.3942901234568" width="10" height="80" as="geometry" />
        </mxCell>
        <mxCell id="22" value="&lt;&lt;servlet&gt;&gt;&#xa;:CVSServlet" style="shadow=1;fillColor=#A2C4C9;strokeColor=none" parent="1" vertex="1">
          <mxGeometry x="622.5" y="60" width="105" height="50" as="geometry" />
        </mxCell>
        <mxCell id="23" value="" style="edgeStyle=none;endArrow=none;dashed=1" parent="1" source="22" target="21" edge="1">
          <mxGeometry x="614.4878472222224" y="174.99999999999997" width="100" height="100" as="geometry">
            <mxPoint x="674.6527777777778" y="110" as="sourcePoint" />
            <mxPoint x="674.6527777777778" y="260" as="targetPoint" />
          </mxGeometry>
        </mxCell>
        <mxCell id="24" value="&lt;&lt;service&gt;&gt;&#xa;:CVSService" style="shadow=1;fillColor=#A2C4C9;strokeColor=none" parent="1" vertex="1">
          <mxGeometry x="750" y="60" width="105" height="50" as="geometry" />
        </mxCell>
        <mxCell id="25" value="" style="edgeStyle=none;endArrow=none;dashed=1" parent="1" source="24" target="26" edge="1">
          <mxGeometry x="727.3350694444446" y="165" width="100" height="100" as="geometry">
            <mxPoint x="802.2588734567901" y="110" as="sourcePoint" />
            <mxPoint x="802.5761959876544" y="165" as="targetPoint" />
          </mxGeometry>
        </mxCell>
        <mxCell id="26" value="" style="fillColor=#CC4125;strokeColor=#660000" parent="1" vertex="1">
          <mxGeometry x="797.4999999999999" y="289.3942901234568" width="10" height="40" as="geometry" />
        </mxCell>
        <mxCell id="27" value="&lt;&lt;ajax&gt;&gt;" style="edgeStyle=elbowEdgeStyle;elbow=vertical;verticalLabelPosition=top;verticalAlign=bottom" parent="1" source="17" target="21" edge="1">
          <mxGeometry x="540" y="270" width="100" height="100" as="geometry">
            <mxPoint x="540" y="370" as="sourcePoint" />
            <mxPoint x="640" y="270" as="targetPoint" />
            <Array as="points">
              <mxPoint x="590" y="270" />
            </Array>
          </mxGeometry>
        </mxCell>
        <mxCell id="28" value="errors" style="edgeStyle=elbowEdgeStyle;elbow=vertical;dashed=1;verticalLabelPosition=bottom;verticalAlign=top" parent="1" source="21" target="17" edge="1">
          <mxGeometry x="550" y="280" width="100" height="100" as="geometry">
            <mxPoint x="529.7839506172838" y="280" as="sourcePoint" />
            <mxPoint x="680" y="280" as="targetPoint" />
            <Array as="points">
              <mxPoint x="593" y="348" />
            </Array>
          </mxGeometry>
        </mxCell>
        <mxCell id="30" value="&lt;&lt;javascript&gt;&gt;&#xa;:GimqRequest&#xa;Batch" style="shadow=1;fillColor=#A2C4C9;strokeColor=none" parent="1" vertex="1">
          <mxGeometry x="952.5" y="60" width="105" height="50" as="geometry" />
        </mxCell>
        <mxCell id="33" value="" style="edgeStyle=elbowEdgeStyle;elbow=horizontal;endArrow=none;dashed=1" parent="1" source="4" target="2" edge="1">
          <mxGeometry x="230.00000000000003" y="310" width="100" height="100" as="geometry">
            <mxPoint x="230.00000000000003" y="410" as="sourcePoint" />
            <mxPoint x="330" y="310" as="targetPoint" />
          </mxGeometry>
        </mxCell>
        <mxCell id="34" value="validate()" style="edgeStyle=elbowEdgeStyle;elbow=vertical;verticalLabelPosition=top;verticalAlign=bottom" parent="1" edge="1">
          <mxGeometry x="550" y="261.7361111111111" width="100" height="100" as="geometry">
            <mxPoint x="680" y="291.1304012345679" as="sourcePoint" />
            <mxPoint x="797.4999999999999" y="291.1304012345679" as="targetPoint" />
            <Array as="points" />
          </mxGeometry>
        </mxCell>
        <mxCell id="35" value="errors" style="edgeStyle=elbowEdgeStyle;elbow=vertical;dashed=1;verticalLabelPosition=bottom;verticalAlign=top" parent="1" edge="1">
          <mxGeometry x="560" y="309.65277777777777" width="100" height="100" as="geometry">
            <mxPoint x="797.4999999999999" y="329.0470679012346" as="sourcePoint" />
            <mxPoint x="680" y="329.0470679012346" as="targetPoint" />
            <Array as="points" />
          </mxGeometry>
        </mxCell>
        <mxCell id="38" value="" style="edgeStyle=elbowEdgeStyle;elbow=horizontal;endArrow=none;dashed=1" parent="1" edge="1">
          <mxGeometry x="932.2588734567901" y="240" width="100" height="100" as="geometry">
            <mxPoint x="802.2588734567901" y="329.3942901234568" as="sourcePoint" />
            <mxPoint x="802.2588734567901" y="370" as="targetPoint" />
            <Array as="points">
              <mxPoint x="802.2588734567901" y="350" />
            </Array>
          </mxGeometry>
        </mxCell>
        <mxCell id="39" value="" style="ellipse;fillColor=none" parent="1" vertex="1">
          <mxGeometry x="802.5000000000001" y="304.3942901234568" width="9.999999999999886" height="10" as="geometry" />
        </mxCell>
        <mxCell id="40" value=" - user&#xa; validation&#xa;&#xa; - password check" style="shape=note;align=left" parent="1" vertex="1">
          <mxGeometry x="829.9729938271605" y="180.17361111111111" width="120.02700617283949" height="109.82638888888889" as="geometry" />
        </mxCell>
        <mxCell id="41" value="" style="edgeStyle=none;endArrow=none;dashed=1" parent="1" source="40" target="39" edge="1">
          <mxGeometry x="1030" y="180" width="100" height="100" as="geometry">
            <mxPoint x="1030" y="280" as="sourcePoint" />
            <mxPoint x="1130" y="180" as="targetPoint" />
          </mxGeometry>
        </mxCell>
        <mxCell id="42" value="" style="fillColor=#CC4125;strokeColor=#660000" parent="1" vertex="1">
          <mxGeometry x="200" y="360" width="10" height="220" as="geometry" />
        </mxCell>
        <mxCell id="43" value="             &lt;&lt;callback&gt;&gt;                                " style="edgeStyle=elbowEdgeStyle;elbow=vertical;dashed=0;verticalLabelPosition=top;verticalAlign=bottom;align=right" parent="1" source="17" target="42" edge="1">
          <mxGeometry x="190" y="329.75887345679007" width="100" height="100" as="geometry">
            <mxPoint x="500" y="310" as="sourcePoint" />
            <mxPoint x="220" y="370" as="targetPoint" />
            <Array as="points" />
          </mxGeometry>
        </mxCell>
        <mxCell id="44" value="" style="edgeStyle=none;dashed=1;endArrow=none" parent="1" source="2" target="42" edge="1">
          <mxGeometry x="50" y="300" width="100" height="100" as="geometry">
            <mxPoint x="50" y="400" as="sourcePoint" />
            <mxPoint x="150" y="300" as="targetPoint" />
          </mxGeometry>
        </mxCell>
        <mxCell id="46" value="" style="edgeStyle=elbowEdgeStyle;elbow=vertical;endArrow=none" parent="1" source="42" edge="1">
          <mxGeometry x="60" y="310" width="100" height="100" as="geometry">
            <mxPoint x="60" y="410" as="sourcePoint" />
            <mxPoint x="150" y="360" as="targetPoint" />
          </mxGeometry>
        </mxCell>
        <mxCell id="47" value="{100..600ms}" style="edgeStyle=elbowEdgeStyle;elbow=horizontal;startArrow=open;endArrow=open;labelPosition=left;align=right" parent="1" edge="1">
          <mxGeometry x="61.20563271604938" y="290" width="100" height="100" as="geometry">
            <mxPoint x="181.20563271604937" y="280" as="sourcePoint" />
            <mxPoint x="181.20563271604937" y="360" as="targetPoint" />
          </mxGeometry>
        </mxCell>
        <mxCell id="48" value="" style="fillColor=#CC4125;strokeColor=#660000" parent="1" vertex="1">
          <mxGeometry x="342.5" y="464.1666666666667" width="10" height="95.83333333333331" as="geometry" />
        </mxCell>
        <mxCell id="49" value="" style="fillColor=#CC4125;strokeColor=#660000" parent="1" vertex="1">
          <mxGeometry x="1000" y="468.3333333333333" width="10" height="81.66666666666669" as="geometry" />
        </mxCell>
        <mxCell id="50" value="" style="edgeStyle=none;endArrow=none;dashed=1" parent="1" source="30" target="49" edge="1">
          <mxGeometry x="956.5711805555559" y="205" width="100" height="100" as="geometry">
            <mxPoint x="1031.7361111111113" y="150" as="sourcePoint" />
            <mxPoint x="1031.7361111111113" y="329.3942901234568" as="targetPoint" />
          </mxGeometry>
        </mxCell>
        <mxCell id="51" value="post_comments()" style="edgeStyle=elbowEdgeStyle;elbow=vertical;verticalLabelPosition=top;verticalAlign=bottom" parent="1" edge="1">
          <mxGeometry x="212.5" y="469.58333333333337" width="100" height="100" as="geometry">
            <mxPoint x="210" y="469.58333333333337" as="sourcePoint" />
            <mxPoint x="342.5" y="469.58333333333337" as="targetPoint" />
            <Array as="points" />
          </mxGeometry>
        </mxCell>
        <mxCell id="52" value="" style="edgeStyle=none;endArrow=none;dashed=1" parent="1" source="6" target="48" edge="1">
          <mxGeometry x="376.5711805555559" y="339.6971450617284" width="100" height="100" as="geometry">
            <mxPoint x="451.7361111111112" y="284.6971450617284" as="sourcePoint" />
            <mxPoint x="451.7361111111112" y="464.0914351851852" as="targetPoint" />
          </mxGeometry>
        </mxCell>
        <mxCell id="53" value="BeginRequest()" style="edgeStyle=elbowEdgeStyle;elbow=vertical;verticalLabelPosition=top;verticalAlign=bottom" parent="1" edge="1">
          <mxGeometry x="530" y="436.8055555555556" width="100" height="100" as="geometry">
            <mxPoint x="352.5" y="477.56944444444446" as="sourcePoint" />
            <mxPoint x="1000" y="477.56944444444446" as="targetPoint" />
            <Array as="points" />
          </mxGeometry>
        </mxCell>
        <mxCell id="54" value="" style="edgeStyle=elbowEdgeStyle;elbow=vertical;dashed=1;verticalLabelPosition=bottom;verticalAlign=top" parent="1" edge="1">
          <mxGeometry x="530" y="549.0779320987654" width="100" height="100" as="geometry">
            <mxPoint x="1000" y="541.7361111111111" as="sourcePoint" />
            <mxPoint x="352.49999999999994" y="541.7361111111111" as="targetPoint" />
            <Array as="points" />
          </mxGeometry>
        </mxCell>
        <mxCell id="55" value="&lt;&lt;javascript&gt;&gt;&#xa;:Proxy" style="shadow=1;fillColor=#A2C4C9;strokeColor=none" parent="1" vertex="1">
          <mxGeometry x="1090" y="462.08333333333337" width="105" height="50" as="geometry" />
        </mxCell>
        <mxCell id="56" value="" style="edgeStyle=none;endArrow=none;dashed=1" parent="1" source="55" target="57" edge="1">
          <mxGeometry x="1204.0711805555559" y="380.08680555555554" width="100" height="100" as="geometry">
            <mxPoint x="1279.2361111111113" y="325.08680555555554" as="sourcePoint" />
            <mxPoint x="1350" y="445.08680555555554" as="targetPoint" />
          </mxGeometry>
        </mxCell>
        <mxCell id="57" value="" style="fillColor=#CC4125;strokeColor=#660000" parent="1" vertex="1">
          <mxGeometry x="1137.5" y="530" width="10" height="90" as="geometry" />
        </mxCell>
        <mxCell id="58" value="" style="fillColor=#CC4125;strokeColor=#660000" parent="1" vertex="1">
          <mxGeometry x="1350" y="540" width="10" height="70" as="geometry" />
        </mxCell>
        <mxCell id="60" value="&lt;&lt;create&gt;&gt;" style="edgeStyle=elbowEdgeStyle;elbow=vertical;verticalLabelPosition=top;verticalAlign=bottom;dashed=1" parent="1" source="49" target="55" edge="1">
          <mxGeometry x="901.25" y="322.5" width="100" height="100" as="geometry">
            <mxPoint x="1031.25" y="351.8942901234568" as="sourcePoint" />
            <mxPoint x="1148.75" y="351.8942901234568" as="targetPoint" />
            <Array as="points" />
          </mxGeometry>
        </mxCell>
        <mxCell id="61" value="&lt;&lt;ajax&gt;&gt;" style="edgeStyle=elbowEdgeStyle;elbow=vertical;verticalLabelPosition=top;verticalAlign=bottom" parent="1" source="49" target="57" edge="1">
          <mxGeometry x="1065" y="359.5" width="100" height="100" as="geometry">
            <mxPoint x="1044.7839506172838" y="359.5" as="sourcePoint" />
            <mxPoint x="1195" y="359.5" as="targetPoint" />
            <Array as="points" />
          </mxGeometry>
        </mxCell>
        <mxCell id="62" value="postComments()" style="edgeStyle=elbowEdgeStyle;elbow=vertical;verticalLabelPosition=top;verticalAlign=bottom" parent="1" edge="1">
          <mxGeometry x="1225" y="309.5" width="100" height="100" as="geometry">
            <mxPoint x="1147.5" y="542.5" as="sourcePoint" />
            <mxPoint x="1350" y="542.5" as="targetPoint" />
            <Array as="points" />
          </mxGeometry>
        </mxCell>
        <mxCell id="63" value="&lt;&lt;json&gt;&gt;" style="edgeStyle=elbowEdgeStyle;elbow=vertical;dashed=1;verticalLabelPosition=bottom;verticalAlign=top" parent="1" edge="1">
          <mxGeometry x="1075" y="396" width="100" height="100" as="geometry">
            <mxPoint x="1350" y="606.5" as="sourcePoint" />
            <mxPoint x="1147.5" y="606.5" as="targetPoint" />
            <Array as="points" />
          </mxGeometry>
        </mxCell>
        <mxCell id="64" value="&lt;&lt;service&gt;&gt;&#xa;:GimqService" style="shadow=1;fillColor=#A2C4C9;strokeColor=none" parent="1" vertex="1">
          <mxGeometry x="1302.5" y="60" width="105" height="50" as="geometry" />
        </mxCell>
        <mxCell id="65" value="" style="edgeStyle=none;endArrow=none;dashed=1" parent="1" source="64" target="58" edge="1">
          <mxGeometry x="1174.0711805555559" y="210" width="100" height="100" as="geometry">
            <mxPoint x="1222.5" y="115" as="sourcePoint" />
            <mxPoint x="1222.5" y="445" as="targetPoint" />
          </mxGeometry>
        </mxCell>
        <mxCell id="66" value="" style="fillColor=#CC4125;strokeColor=#660000" parent="1" vertex="1">
          <mxGeometry x="200" y="600" width="10" height="130" as="geometry" />
        </mxCell>
        <mxCell id="67" value="" style="edgeStyle=elbowEdgeStyle;elbow=vertical;dashed=1;verticalLabelPosition=bottom;verticalAlign=top" parent="1" edge="1">
          <mxGeometry x="507.50000000000006" y="664.3418209876543" width="100" height="100" as="geometry">
            <mxPoint x="342.5" y="549.5" as="sourcePoint" />
            <mxPoint x="210" y="549.5" as="targetPoint" />
            <Array as="points" />
          </mxGeometry>
        </mxCell>
        <mxCell id="68" value="&lt;&lt;callback&gt;&gt;" style="edgeStyle=elbowEdgeStyle;elbow=vertical;dashed=1;verticalLabelPosition=bottom;verticalAlign=bottom" parent="1" source="57" target="66" edge="1">
          <mxGeometry x="540" y="559.0779320987654" width="100" height="100" as="geometry">
            <mxPoint x="1010" y="551.7361111111111" as="sourcePoint" />
            <mxPoint x="362.49999999999994" y="551.7361111111111" as="targetPoint" />
            <Array as="points" />
          </mxGeometry>
        </mxCell>
        <mxCell id="71" value="rt submit_changes" style="rounded=1;fontStyle=1;fillColor=#FFD966;strokeColor=none" parent="1" vertex="1">
          <mxGeometry x="50" y="20" width="150" height="30" as="geometry" />
        </mxCell>
        <mxCell id="72" value="opt" style="rounded=1;fontStyle=1;fillColor=#FFD966;strokeColor=none" parent="1" vertex="1">
          <mxGeometry x="152.5" y="420" width="87.5" height="30" as="geometry" />
        </mxCell>
        <mxCell id="74" value="Handle errors from Gimq" style="fillColor=#BFC8DB" parent="1" vertex="1">
          <mxGeometry x="190" y="625" width="310" height="60.55555555555554" as="geometry" />
        </mxCell>
        <mxCell id="75" value="ref" style="rounded=1;fontStyle=1;fillColor=#FFD966;strokeColor=none" parent="1" vertex="1">
          <mxGeometry x="196.25" y="632.8935185185186" width="53.75" height="25" as="geometry" />
        </mxCell>
        <mxCell id="76" value="" style="align=left;fillColor=#BFC8DB" parent="1" vertex="1">
          <mxGeometry x="189.99999999999997" y="699.7222222222223" width="1201.1944444444443" height="60.55555555555554" as="geometry" />
        </mxCell>
        <mxCell id="77" value="ref" style="rounded=1;fontStyle=1;fillColor=#FFD966;strokeColor=none" parent="1" vertex="1">
          <mxGeometry x="196.24999999999997" y="707.6157407407409" width="53.75" height="25" as="geometry" />
        </mxCell>
        <mxCell id="78" value="Request all changes" style="text;align=left" parent="1" vertex="1">
          <mxGeometry x="268.05555555555554" y="720.1157407407408" width="351.80555555555554" height="26" as="geometry" />
        </mxCell>
        <mxCell id="82" value="" style="edgeStyle=elbowEdgeStyle;elbow=vertical;endArrow=none" parent="1" edge="1">
          <mxGeometry x="59.999999999999986" y="419.7106481481482" width="100" height="100" as="geometry">
            <mxPoint x="200" y="469.7106481481482" as="sourcePoint" />
            <mxPoint x="149.99999999999997" y="469.7106481481482" as="targetPoint" />
          </mxGeometry>
        </mxCell>
        <mxCell id="83" value="" style="edgeStyle=elbowEdgeStyle;elbow=vertical;endArrow=none" parent="1" edge="1">
          <mxGeometry x="60" y="499.71064814814815" width="100" height="100" as="geometry">
            <mxPoint x="200.00000000000003" y="549.7106481481482" as="sourcePoint" />
            <mxPoint x="150" y="549.7106481481482" as="targetPoint" />
          </mxGeometry>
        </mxCell>
        <mxCell id="84" value="" style="edgeStyle=elbowEdgeStyle;elbow=vertical;endArrow=none" parent="1" edge="1">
          <mxGeometry x="59.999999999999986" y="559.7106481481482" width="100" height="100" as="geometry">
            <mxPoint x="200" y="609.7106481481482" as="sourcePoint" />
            <mxPoint x="149.99999999999997" y="609.7106481481482" as="targetPoint" />
          </mxGeometry>
        </mxCell>
        <mxCell id="85" value="" style="edgeStyle=elbowEdgeStyle;elbow=vertical;endArrow=none" parent="1" edge="1">
          <mxGeometry x="49.99999999999999" y="649.4328703703704" width="100" height="100" as="geometry">
            <mxPoint x="190.00000000000003" y="699.4328703703704" as="sourcePoint" />
            <mxPoint x="140" y="699.4328703703704" as="targetPoint" />
          </mxGeometry>
        </mxCell>
        <mxCell id="86" value="" style="edgeStyle=elbowEdgeStyle;elbow=vertical;endArrow=none" parent="1" edge="1">
          <mxGeometry x="49.99999999999993" y="709.9884259259259" width="100" height="100" as="geometry">
            <mxPoint x="189.99999999999994" y="759.9884259259259" as="sourcePoint" />
            <mxPoint x="139.99999999999994" y="759.9884259259259" as="targetPoint" />
          </mxGeometry>
        </mxCell>
        <mxCell id="87" value="{5..50ms}" style="edgeStyle=elbowEdgeStyle;elbow=horizontal;startArrow=open;endArrow=open;labelPosition=left;align=right" parent="1" edge="1">
          <mxGeometry x="41.44675925925927" y="479.1666666666667" width="100" height="100" as="geometry">
            <mxPoint x="161.44675925925927" y="469.1666666666667" as="sourcePoint" />
            <mxPoint x="161.44675925925927" y="549.1666666666667" as="targetPoint" />
          </mxGeometry>
        </mxCell>
        <mxCell id="88" value="{1..500ms}" style="edgeStyle=elbowEdgeStyle;elbow=horizontal;startArrow=open;endArrow=open;labelPosition=left;align=right" parent="1" edge="1">
          <mxGeometry x="42.89351851851853" y="560" width="100" height="100" as="geometry">
            <mxPoint x="161.44675925925927" y="550" as="sourcePoint" />
            <mxPoint x="161.44675925925927" y="610" as="targetPoint" />
          </mxGeometry>
        </mxCell>
        <mxCell id="89" value="{10..50ms}" style="edgeStyle=elbowEdgeStyle;elbow=horizontal;startArrow=open;endArrow=open;labelPosition=left;align=right" parent="1" edge="1">
          <mxGeometry width="100" height="100" as="geometry">
            <mxPoint x="153.94675925925927" y="700.2777777777778" as="sourcePoint" />
            <mxPoint x="153.94675925925927" y="760.2777777777778" as="targetPoint" />
            <mxPoint x="-4.236111111111107" y="-0.2777777777777883" as="offset" />
          </mxGeometry>
        </mxCell>
        <mxCell id="T0xJNmL-TFScPGAmiZdL-94" value="forecastManager" style="shadow=1;fillColor=#A2C4C9;strokeColor=none;fontSize=15;" vertex="1" parent="1">
          <mxGeometry x="120" y="1130" width="180" height="50" as="geometry" />
        </mxCell>
        <mxCell id="T0xJNmL-TFScPGAmiZdL-162" value="user" style="shape=umlActor;verticalLabelPosition=bottom;verticalAlign=top;html=1;fontSize=16;" vertex="1" parent="1">
          <mxGeometry x="-160" y="1305" width="30" height="60" as="geometry" />
        </mxCell>
        <mxCell id="T0xJNmL-TFScPGAmiZdL-163" value="validate()" style="edgeStyle=none;verticalLabelPosition=top;verticalAlign=bottom;labelPosition=left;align=right" edge="1" parent="1">
          <mxGeometry x="110" y="49.5" width="100" height="100" as="geometry">
            <mxPoint x="120" y="159.5" as="sourcePoint" />
            <mxPoint x="210" y="159.5" as="targetPoint" />
          </mxGeometry>
        </mxCell>
        <mxCell id="T0xJNmL-TFScPGAmiZdL-164" value="点击执行&#xa;/callcenter/api/rule/execute?id=25" style="edgeStyle=none;verticalLabelPosition=top;verticalAlign=bottom;labelPosition=left;align=center;entryX=0;entryY=0.5;entryDx=0;entryDy=0;fontSize=15;" edge="1" parent="1" source="T0xJNmL-TFScPGAmiZdL-162" target="T0xJNmL-TFScPGAmiZdL-168">
          <mxGeometry x="110" y="49.5" width="100" height="100" as="geometry">
            <mxPoint x="-220" y="1154.41" as="sourcePoint" />
            <mxPoint x="-130" y="1154.41" as="targetPoint" />
          </mxGeometry>
        </mxCell>
        <mxCell id="T0xJNmL-TFScPGAmiZdL-168" value="" style="fillColor=#CC4125;strokeColor=#660000" vertex="1" parent="1">
          <mxGeometry x="205" y="1270" width="10" height="130" as="geometry" />
        </mxCell>
        <mxCell id="T0xJNmL-TFScPGAmiZdL-171" value="" style="edgeStyle=none;endArrow=none;dashed=1;exitX=0.5;exitY=1;exitDx=0;exitDy=0;entryX=0.5;entryY=0;entryDx=0;entryDy=0;" edge="1" parent="1" source="T0xJNmL-TFScPGAmiZdL-94" target="T0xJNmL-TFScPGAmiZdL-168">
          <mxGeometry x="272.3350694444445" y="165" width="100" height="100" as="geometry">
            <mxPoint x="209" y="1200" as="sourcePoint" />
            <mxPoint x="209" y="1270" as="targetPoint" />
          </mxGeometry>
        </mxCell>
        <mxCell id="T0xJNmL-TFScPGAmiZdL-173" value="" style="shape=image;verticalLabelPosition=bottom;labelBackgroundColor=default;verticalAlign=top;aspect=fixed;imageAspect=0;image=data:image/png,iVBORw0KGgoAAAANSUhEUgAABSgAAADtCAYAAAC8jJsoAAAgAElEQVR4Aey953MbydbmOf8OQFEGFD0pUo6UKNGIIilREo0s5R0p771ree9arZZvmZZrtbt9+96+fe+dnXci5l33ZSPWReyHNbPvbuw7uzOx7uw+WTpAolAAq0CAAMHnQ0UVqrKyTp78ZZkHJzP/RVFRkXChD8gAGSADZIAMkAEyQAbIABkgA2SADJABMkAGyAAZyAUD/yIXF+U1CTsZIANkgAyQATJABsgAGSADZIAMkAEyQAbIABkgA2CAAiUjSBlBSwbIABkgA2SADJABMkAGyAAZIANkgAyQATJABnLGAAVKwpcz+PgvCf8lIQNkgAyQATJABsgAGSADZIAMkAEyQAbIABmgQEmBkgIlGSADZIAMkAEyQAbIABkgA2SADJABMkAGyAAZyBkDFCgJX87g4z8k/IeEDJABMkAGyAAZIANkgAyQATJABsgAGSADZIACJQVKCpRkgAyQATJABsgAGSADZIAMkAEyQAbIABkgA2QgZwxQoCR8OYOP/5DwHxIyQAbIABkgA2SADJABMkAGyAAZIANkgAyQAQqUFCgpUJIBMkAGyAAZIANkgAyQATJABsgAGSADZIAMkIGcMUCBkvDlDD7+Q8J/SMgAGSADZIAMkAEyQAbIABkgA2SADJABMkAGKFBSoKRASQbIABkgA2SADJABMkAGyAAZIANkgAyQATJABnLGAAVKwpcz+PgPCf8hIQNkgAyQATJABsgAGSADZIAMkAEyQAbIABmgQEmBkgIlGSADZIAMkAEyQAbIABkgA2SADJABMkAGyAAZyBkDFCgJX87g4z8k8f+QFBcXy6RJk7K2TJgwgXXN9k4GyAAZIANkgAyQATJABsgAGSADZIAM5B0DFCgJZd5BWYjC5dTSMhnYvEO27joc52+IhiUlJVJZWTkqS3l5uUycODHOhkL0d6GXCRyBp5KppaxL3sPJABkgA2SADJABMkAGyAAZIANkYMwzQIGSEI95iPNdjGpftFS+fPmjvPj+b7L/xMWovyFOlpaWuoTJKpnX3Co9Kwdk3bYdsnFotwxsHpQlfStkduMcV9r0RM2KigoTpZnvfqN98RG2tj/2n7hgePrymx+krbM7ypSdhtvJ/Uff0DdkgAyQATJABsgAGSADZIAMkIH8YoACJQXKghE3JkwokuV9YdmyMSzVVfnR0DqX9MnzT3+VW0/ey/y2jjhfT5kyJU5wbJjTJBuH9sieY2eSLqvWb5a6+vq489KJvkQkJW/G+cFIuvUAnsDVs+9+l47uHtYn7+VkgAyQATJABsgAGSADZIAMkAEyMGYZyBuBcml3kdy4HJL3r0Lyw/uQvHgclgN7Q1JeHi8iTK8Py8/fheIWpH/6MCRD28IyeVJ4zFZGukJFsvMe3HF8lew49m/b7KSBD6eWxHxdUhI29QBfI02qPPLlWPP8oigXp46Fcm5zZVWNPH73q9x5+lHKKioT7CkrK4sKjS0LFsrOwyeTCpPb9h6S1Ru3muPYnjm7IXpuOgIlzpk8eXKcTetPdcvA0UXRfdjGvnyp33ywo3dHW9Z8ko7/wRX4+vrtH6Wiqpp1xZcRMkAGyAAZIANkgAyQATJABsgAGRiTDOSFQHl4vyOSvX0ZknOnQnL8cEju3HD2vXwaiouGU4HyyVchObQvbJZjh8Py5Csn/d0bIZk0KSa05YOokSsb/AqUz74OyU8fQ7KiP+a3vh5H7MOxsSJQQpzeuzMsJ4+GpWlOrCy58v/uw2dMN9y2jsWeNwd0tYZQiMjJVOIkIirRxRtpW9s7ZNeRU7J1z0GZNq1uRCJlJBKJsysdgSxXvs3VdfNNoIQf0MUbwwfsPHgqrj5z5SNeN/f3HtYB64AMkAEyQAbIABkgA2SADJCBscZAzgXKZUscYfHy+bBEIvEAdXYUGeHs/JlYNJwKlO4IueLiIrlw1omsXL1ibET8ZRsW3wLlw5DcvBqWqxdjfjt/Jixf3g7L1/fHjkCZbX8GyR8zcn/1+mfTBTfZeU7kY1XSbt3ozj13XrM0zJkbJ0S2dy02kZTLVqyO2+/k539cSgqU8febZPVk789HgRJjmd5+8l4evPpROFN78Dq165fb9B8ZIANkgAyQATJABsgAGSADZCA3DORcoESk5Ic3IalwdeVWIE4fD8uPH0JR8TKZQIn0Lc1O1J9bvMSxxV1huXszLJ/ehuTTu7CJ0OzqjAlyej2sIXbuHAzLq2dO+vu3QtLSHBbkiy7PsEHTz2l0BNbDB2Iiqh7DPqRHGt2n6yD2IDJwcCuiREPGfvjj+aOwsdHdpf3Ni/ju7+7u8Pi9emXMHkRHfvetsw/5lpUWmW7y8NPGdWF5/9pboOxZEpY718OmSz7S3LsVEkRdYhxILSPWdn3Bh0gH/796FpJdg2Hj65Gkx7leZe7qiJUxWf4LF4Tl4T3Hpy+fOEMEoO7t9NhGmbZvCQuieeEXcNTYUCRav3V1iefUTZ9lotr2HvsiIT/NH4LivJbWpN26e1IIkBircteRk1JTWxsVKds6umT99p0JgqYtXM5qaDRpOhYvEbdAufb4Yll1MDZO5qqDnYJ9aq97XTenUpYNtpo0SLdse6tMa0zsyl4/t8p0i16ytVmKXHx0b55vjk2fn9g92W/+alfdnCpjw8CxRaares9gq8xAvq5rVkybaq7ZtrwhoWzYh0hSpNF8Vx3qNPuwP9kyq602ml7PC2p/UP/rdbDed/y84a1u+swEO+x03E5sq/QJfUIGyAAZIANkgAyQATJABsgAGcg9AzkVKCdMcMY5vHDWW0wCIBDJIKrNmuk4yxa83ACpQHniaHx+EOSQx9tvwnLmZFjOnAjLt984Qh4mVXHnA+EM6TEeJtJ/cTpszr12ydk/UoEyqD3HDjnXffwgJNg+csCJboSN6BJv239gb1hQfizoMo80+lvXbS2xMusYlNNqHSF45fKwLO5yhN4Z0521u4v3lk2OPRAZTx0LC0RkFQn37IzlDbu0vuA7+B++hP/ffbYNQrBtf9D0OBd5aHd/iMko83AC5bVLIWOD2vPhtVMm1L1tD7a1vB9eh+TsybAguvTZQwxF4JzjJVDOb11oBKNNQ/sT8tP8IRz2rlore46d/rw4k+NAZMTM3XOa5kXFR1tkxPaCzkVG2Gxp74imWbl+s9k3dPCYzG6Mj7rEORAnB/cfMWkGtgwmCJQrD3RI364FUXuxjX1qr72GIAexbvXhLukYmGuW1Z+FvJktiWJd59omk94+BlESeXStb0q4RtD8Z7dPM3lBnOxc1yQda+YasRX5u4XIoAJla3+DLFw9xyyrDztipf7WdfWM+EmHgtoP3wbxv10X2AZn6OY9r7U9wZfutPyd+wcv64B1QAbIABkgA2SADJABMkAGyAAZiGcgpwIlovUgJu3dFROF5s4pEnRNRqTaoy+dqDak0ShEFbDcUZIQOyEcIe3K/lh+EycWmShARL+VlsYKj2sjQhIinh01h/Erv38XEghW1dWx9LNnheXjG0f8GolAGdQeRO8hwhRioD22JvYf2BOWS+cSu8Yr5H67eMNnECivXQzLpS/CcvRgWDCWZ22N409boIQNLx6FTPfvKVNi/ikpKTITGyEKExPsqA1aX/AdfKj7qyqd6EzUs12uoOk1P10j0hTlGU6gRNQooiD1PJQVfsZkQagj3Y9t7IedddNi+8HjTx+TC5Q6LuD6bbujeWmeuoZouHbLkAzuPyqIaHSEyjO+ZulGt2+MTbm4pz8qUNZPny5bdu33FCltcXLb3sMyfebMBIES3ZdNlOPnAYWxbQuWaveE4gmy5miXEdQmRSZGyzc5MkkQdQkRzx1JO7lkkkDAxIJ0EycXm7RrDnfJlKmTonngGkHzL57o2DNwtEumVsTG1Zw4qVj6d7cb4XJqxZToNYIKlFpurP108Q5qv+bv1/+a3l6DMwiU4M7ez+1Ym6Uv6AsyQAbIABkgA2SADJABMkAGyED+MpBTgbKywhEoISoBEoiMmL0bYx9WVRZJZWWRaEScW6BMNkkOuozbgmPDbOcaiLBzg3jo8+Q8s2bGjiFSEwIXogLd6RF1h2MjESiD2gOhB+IYunS7RR+3fe7fQQTKxoawrOh3hOHXz0KyfiAscxocX9gCpfsa9m+NKEQZdb8Kjoig1H26ho/hT42Oxf6g6TUvXfsVKG9cSbQH0ZTu+p1e7/jAHamK6926OnKBEl21N+/cZ0RGFSlXrtskywc2xC12pCSEzWl19UaIdI9D6SVSeomTyMPdxVt9ONy6vOZzF+n+5F2ky6pLEupbu3ojorG1b7YRDr26dgfNX9MjktNte31TlSB60+6ynW2BUu1pC+gft+1BflOgjN1zgviNaek3MkAGyAAZIANkgAyQATJABshAfjCQVwJlba0jBqFbtwKyYa0jArkFSghJ9oLIN4hTkyfHO7Z5vpMnRE/tBqxr7EMe8+fFrqfpEZ2oNug6E2NQav5+7cG10Y0adn55x4koxfiPiHhUu5KtgwiUGB9yakmRiVrFjOiIcMQ+XNctUEIo7V5UZPytvsQaE+ogvdYV7FLB0R3ximPwMdLDJ1qGoOn1PF37FSi97NExJW37wQZs9OJBBVavLt5+IyjXbNomQweORaMgVaREdKS9qIgJYRHL7MY55njX0t7ouXrMLVJqt26NnNR06QqUVdPLjLjYM9QmEOHsBfvQrbqqvixap1o3WEMsXHeyW9adWCyLNszzTBM0f00P0dO+VrLtbAuUak86/klm83D7KVDG7iHD+YrH6SsyQAbIABkgA2SADJABMkAGyED+MZBXAiWi+CAG2ZO46HiNKhp5CVj3bjrCmN1lV2FTQRD5JltsgUzTewlSmRQok9mC/bY9KAdE1x3bwyaK0j4PgqAtrmqZdR1EoGxvSxQ8sQ/XswVKdMfG5Di2He5trSvY4VVfat9YECj98OApUHYsNl1uh+vivaRvhREaITiqcNjZvSxOnIRQ6RYoNU1Tc0v0PD0fa1ukxPlucRJpRipQQohMtkCk03q217WzK6LneE2og7Qq8CXL2wigVv6aPt8ESr/22/5JdzsqUHYkn9Qo3bx5Xv49uFknrBMyQAbIABkgA2SADJABMkAGCo2BvBIoIWxB7AoqUGJGbJx3/kz8hDGoLBWY3JOxJKtITe9XoFRRNdUs3kij19P8/dqj5+m6vLxIWpvDsnuHM8EQxtDE+I963F4HESg72hPzwD741RYoNaIVUZ2wxb6eVwTiWBcom+Y4PsDERHZZsa1dwr0EyqbmBUag3Lr7cMJ5mg9EQicS8rSsWLsxKjROm1aXIFBu33dEMEs3hMeqqmrZtueQGbsS27YwaW+rSOklTmZCoJy/NNiM0cUTi6V/T7sZhxKzhWMb40eqP3StgqPf/DW9X4GyvHb4WbyRRu2x137GoFR7/Npv55/u9rY9Rwxvc5vbPO1ON1+eF3+Poz/oDzJABsgAGSADZIAMkAEyQAbIQHYYyCuBcvasxC7emzc44qNG5XkJXuhyjG7JP32Mn4gF0OiYj14CkxdUM2c4Nvgdg1LHKPQSRy+ec6I26+tilRfUHi8bdZ8KghA9dZ+9zoZAqd2a7TLpNTXCVOsK+7W+Uo1BCZ9rHkHT63m6znQXb4iwEGkxaZBeA2sw9+xrp369BMrK6lojGJ24eDvuPDsPFRNXmdm3T0tzW3tUbNwwuDtBpEQk5I6Dx42Yie2OxUuj6TUv9xoiJSbEce/H73QjKHWMxQUrGpOWzS6nbjf3zDLRk5jhWme5bvHolh00f03vNQbljPk1ZpbwyrrSqK2llRFjh9fs4eh2jsjHqZWxyXbUfqz9CJRqT1D/2NcJun3i4h3DW2VVTbScQfNg+th9iL6gL8gAGSADZIAMkAEyQAbIABkgA6PLQF4JlJhlG2IQJsbBBDkYB/HhveEFSkCDmbtxrnsyEzML8+uwvH4ekvKymHPRVRldw9+ZCMRYdBz2e83ijYlcPrx2BCmIaAoqhKo3Lz7P8mwJkUjz6Z1zXaTR9EHtwczR6MrtJbBePu+U2Z5kRq+DtU7qY89ebh/HNqIj4Te/EZQH9jrpl/fFfIB8MEM3/IC8vARK+M62c7hZvP2md5cn0wIl8lehd/uWsGD2d0zuhDE3UVYsXgIlzrv1+J08+fBnKSnxjsarqKgwwmFdfb1s23tIdh05aaIkIR5WV9dI76oBT5ES4uTA5u1SWVnlKTx6iZFe+yZPnhzl0u3HVL8xS/XA0UVmFm7Mzq1pEQ25bLBVMDM3ZunW/VhX1pfKupOLzfEJEyYIlmXbW8w+RBzaaYPmr7N4Y2bxkvLYbN1mFu897bL+ZHfcflx71aFOWXt8cdys3xAlsQ8zkSONbZNud2+ebwRMe/ZyPabroPbreemup5aWyZMPvxne0s2D58Xu0fQFfUEGyAAZIANkgAyQATJABsgAGRh9BnIqUE6d6giSdnfnMydjwg/En727nN8qemmEnXuSEwh/r545UZS2EAaoBlY5eXz7TUjOnAjLiSPObOHIf9dQvNCG9LsGnfTvXznpIXq+/SYsl75w9tsCJdL39zr7P7wJydmTYTl3Kiwf3zjiVV9PYqUGtefWNScvCKqImjxyMByd3RyRfbYAajcijT79+n5YThyNLZiMSNMFFSgR5QoBF9GqVy+G5dihsBFCUV71j9YVrqH1BTEV3dHhS0RhQhiG/+26Tyc9okftiXp01ndcz96v5VV73PzguEak2vZjf9PcIvnuW8de2IzlwZ1QdPKiZALl6g3bTVTb9r1Ho/5WO7AuKSmJCowzZzfI1j0HjSC5btsOI1QuW77KU6Ac2DwoNbW10XO9xEc/+5KJcLaNybZnL5hmhLrVhzoFkYvtqxplxf6FZp+7azMExOV72s3EOPbs3tjGhDnL9yZ29Q6SP2xsaK8z1x442iWda+fKwjVzBd3IEQ2JWcPd5ZjRXGOlbzKT9wwcW2T2IerSnV5/z+mabtL07VogC1fPiS62MIq0Qe3X/NNZD+47bjhbtX5bUrvTyZfnxO6T9AV9QQbIABkgA2SADJABMkAGyAAZyC4DORUoUbmf3kLoiXWfLS4ukhX9RbJnZ1gwtiTENAhNNdWOI1IJTJj9G+IRREI3OEu7i0w3XUQ1fngdNtGTy3sT0+E82ADh7NUzJzISM25j3EeIfMjfLVDinEWdRXL3phM1iWvcuRGWzoXe+SN9EHsg5O7b7YiqP34ICWYsf/HYEeDKypJfA6Itznv9LF5cswW4oAIlbMfEPDcuhwQCLnx5/VJI5jeFo7Ny2/lrfUEUbmstEvgSdQ7fQgiGr5GnLkHT6yRKKhwmW7vzt5nTY8kEShyvrSmSLRvDRjBfs7JIIpEiUTE9mUA5adIkufbglRGP+tdsjJZRrweBUKMoIShi7MllK1bLriOnPIXJoQNHBbN8jzRyEteaMiUWaaj2BF3Xz60yUZCIOkREJaInIfy588HYkBAK3cIl0jUvm2mOeY0f6Td/vZ5JP9hqoiBhD2bRNvZYEcyaFmtM0gObYT+WZdtbpbahIsF++xxER7b0zo6KnzoRDmYGt9NhO6j97vP9/F4+sNnwBc4mToxFs/o5l2li9x36gr4gA2SADJABMkAGyAAZIANkgAzkloGcC5RXLjgiF0S4fIdBx1/0Eijz3fZc2aeCI3znx4ag6f3kma00EMIhiE6rTV626pppcvvpByMinb5yX5oXdMb5obi4WMrKyuKiIWtqaqV5wUJZ3NMvS/tXyqJlfYLZulNNiOMnYhJpIIhmQpzMlk+Zr7/7YEt7l5y++qXh6vaT9wLO6Dt/vqOf6CcyQAbIABkgA2SADJABMkAGyED+MZBzgbK9rch0F0YUHsb3y2dIEHWXLIIyn+3OpW0qOHpFLHrZFTS9Vx6jtQ/dyRHRikjVVNfEGIF7jp6T55/+KscveE+ag2hLCIeYuCZbC8acHEm37lRl5LHUDGTaP+AIPO05ck5KpsYmAMr0dZjf6NYr/U1/kwEyQAbIABkgA2SADJABMjBeGci5QAnHb93kjB2JcQwvnA3J4f3hhLEJ86GCKFAGv1EEFRyDph8tLjaut8a03B+WG1ec6MmTR5NHT7ptwwzL7ghKd5p8/731wHXhkjkfpFvf4Igzdge/H6Xrb55HX5MBMkAGyAAZIANkgAyQATJABrLLQF4IlKhkjPF4/owz7uNPH50ZofOt8ilQBocxqOAYNP1oMYIJinR8S0wQ9M2TkBnfE2NRjpYNvA59TQbIABkgA2SADJABMkAGyAAZIANkgAwUIgN5I1AWonNZJt40yAAZIANkgAyQATJABsgAGSADZIAMkAEyQAbIQGoGKFBaM0gTltSw0D/0DxkgA2SADJABMkAGyAAZIANkgAyQATJABshAphmgQEmBkl2UyQAZIANkgAyQATJABsgAGSADZIAMkAEyQAbIQM4YoEBJ+HIGX6bVdubHf3DIABkgA2SADJABMkAGyAAZIANkgAyQATIw9higQEmBkgIlGSADZIAMkAEyQAbIABkgA2SADJABMkAGyAAZyBkDFCgJX87g4z8aY+8fDdYZ64wMkAEyQAbIABkgA2SADJABMkAGyAAZyDQDFCgpUFKgJANkgAyQATJABsgAGSADZIAMkAEyQAbIABkgAzljgAIl4csZfJlW25kf/8EhA2SADJABMkAGyAAZIANkgAyQATJABsjA2GOAAiUFSgqUZIAMkAEyQAbIABkgA2SADJABMkAGyAAZIANkIGcMUKAkfDmDj/9ojL1/NFhnrDMyQAbIABkgA2SADJABMkAGyAAZIANkINMMUKCkQEmBkgyQATJABsgAGSADZIAMkAEyQAbIABkgA2SADOSMAQqUhC9n8GVabWd+/AeHDJABMkAGyAAZIANkgAyQATJABsgAGSADY48BCpQUKClQkgEyQAbIABkgA2SADJABMkAGyAAZIANkgAyQgZwxQIGS8OUMPv6jMfb+0WCdsc7IABkgA2SADJABMkAGyAAZIANkgAyQgUwzQIGSAiUFSjJABsgAGSADZIAMkAEyQAbIABkgA2SADJABMpAzBvJGoFzaXSQ3Lofk/auQ/PA+JC8eh+XA3pCUl8er0tPrw/Lzd6G4BemfPgzJ0LawTJ4UzpkzM60e52N+dXVFcb5HXaDO7t0KSX9vWCZMiK+vTJbh1DGn3sFAJvNlXtmrM/qWviUDZIAMkAEyQAbIABkgA2SADJABMkAGhmMgLwTKw/sd0fHty5CcOxWS44dDcueGs+/l05BUV8UqUgXKJ1+F5NC+sFmOHQ7Lk6+c9HdvhGTSpFj64RzA48F8pQIl/K3+P3MiLO9eOuIhROVs+ZQCZbC6ylY9MF/WAxkgA2SADJABMkAGyAAZIANkgAyQATKQSQZyLlAuW+IIi5fPhyUSia/czo4i+eljSM6fiYleKlBCrLIdUVxcJBfOOiLZ6hWMsLN9k8ltFShPHI33cVlZWCAmo74qXFGvmbo+Bcr49pEpvzIf+pUMkAEyQAbIABkgA2SADJABMkAGyAAZyCUDORcoESn54U1yUev08bD8+CEUFS+TCZRwYkuz0/3YLV7i2OKusNy9GZZPb0Py6V3YRGh2dcaLbFoR6CY+uBVRmSGTHtd//igsOwcTu5Db9rQ0h01XZ+T/6llIdg2GBcKp5muvl3aH5d5NJ3+kxzb22Wmwbee/cEFYHt5zznn5xOnS7pV/EPv1en79k0ygRD4H9zpic/P8xDL7LS/yQZng61fPwqau4Jv5TWE5dczJHz5RuxE9i27my3tj+/TYok6HB0Tk6j6uE+uGPqFPyAAZIANkgAyQATJABsgAGSADZIAMkIFcMpBTgXLChLAZb/LC2URxSZ2ycZ0jQM2a6YBiC3aaRtcqULqj+1avdPJ4+01YzpwMC7okf/uNE225vC/x2scOOekfPwgJto8cCMuXt5196IKu18Na7bl2KSzI/4vTTv7a5RlCm50e2+vWOHlh7MazJ8NmwTaEtnVr4htELP+Q6Uat+X947eQBEdSdfxD7cW4Q/6QSKOEblGFabbxNQcoLe1AmHdsS9YUyv3kRikbI2gLl/HlO2qsX46+JfE4edY61tyUec/uMv+O5oz/oDzJABsgAGSADZIAMkAEyQAbIABkgA2RgtBjIqUBZVupEuO3dFROQ5s4pkgd3nEjHR186UYIQq+Y0OmlUsHNHSULsPH/GEaRW9sfymzixSN6/Dpnux6WlMbBwbUToYdxLOwoRk7wgohMRkPZYlth/YE9YLp2L74qu9nx8E5LZs2LXraoMm+siYtPOB9sfXofMMaTRitb0OGan1/y/+zYkjQ0x+2trnMhTTBCEMmo+Qe0P6h8vgRJ+hQjp7o4Pm4KWF+m/fxcSCLDV1bFywbeoR7BgC5S4BiJdEeWKbubqB1OuVyEjbIIN3c91zKf0BX1BBsgAGSADZIAMkAEyQAbIABkgA2SADOQDAzkVKCsrHIES3anhDAhJmL0b0YpVlUVSWVkk9285opRboEw2SQ66jNuCY8Ns5xqY0MXt8EOfJ+eZNTN2DAIfREV06ca2+xz3bxUQEUHpPobu6RDUNPoTx9Uet8CKY4jsRPrZs2LX1fxvXEnMH5GFbsEuqP1qj1//qECJ67qXE0fCMnlyzPZ0yjtzhlNf8J3bn9cueQuUWzc5fhhYFTuno93JJ5uT9rjt4+/4uqc/6A8yQAbIABkgA2SADJABMkAGyAAZIANkwA8DeSVQ1tY6ohK6davxG9Y64pNboHSLY4gkhNDpFsgwHiLSQvTUWad1rd220U1Yr4e1jnX45R0ngrNnSTih27KmVwHRS3BExCWubY/JqPbgmOaha01v25Mq/8MH4sVbzSeI/WqPX/+oQGnP4o2yIxoVEZTbt8SXS/P3W95U6XEd+BM+0bJijehTXPv2tVj3e+3mPq+JNwLbV9wmD2SADP3KrG8AACAASURBVJABMkAGyAAZIANkgAyQATJABshAvjGQVwJlY4Mj6GFMRHWUjo/oFihtQRCTqEC4srtA6/kqeOF4sgVpND3WEDl3bA+bKEr7nK/vh8QWD5E2lYCogqOdv9qTSrCz06fKP5lAGcR+tccup3vbtkcFSvc4n7jmrauOj5vmxvyp+fstb6r0yQRK1MOVC84M4jXVTiQuxgNFNK5dr9yO1Qt9QV+QATJABsgAGSADZIAMkAEyQAbIABkgA/nCQF4JlBAhIY4FFSgxAzXOO38mFkGnDlbBy2uyGk2Tal1eXiStzWHZvcOZ0AdjVpaUxABOJSCmK1DaImiq/JMJlHZ5hrM/qH+SCZS4ZudCpx6GtsWEQc0/lUBplzdV+lQC5bIlzrU3rQ9LW4uz7TWBkO0bbsc4pi/oCzJABsgAGSADZIAMkAEyQAbIABkgA2QgVwzklUCJsRchNNpdvDdvcMSmVBGUGHcRXY7RzdeeqAZO1TEWMRP3SJ2sgiBENM1LBcRUY1BiXEVNr/Z4jbGoY1Z6jUFpR4xqXmqP+kb3J1trett+tcevf1IJlO1tTv3tt7qva/5+y4vxOsGAV/pkY1CivJhcBzOhY8xSFYbtsT+T+YT7Y2zSF/QFGSADZIAMkAEyQAbIABkgA2SADJABMpALBvJKoMRs0BCnIDJhghyMLfjw3vACJRyHmbtx7rlT8VGUmM0ZM0K/fh6S8rIYZBC00DX8nYmIjImXddOKBF25vQS7y+eda9jClwqUmH3b3q+zciedxftVyJRPK13TIx97Vm7N369AGdT+wP6pc+rI3cUb+Vz6wvFPX0/Mn9FZvH2WN9ks3vAtZjJHHcMn6jd7jUmPIFK/eBySr+97p7HTczvWHugL+oIMkAEyQAbIABkgA2SADJABMkAGyAAZyBUDORUop051xC67+/WZk47IBSEKy95dzm+NEkwm2EEg04labKEQjsXszsjr229CZqZszDaN8Qmxb9dQopB165pzbQiYiDo8cjAcnU387o1Q3Ozeag/ES3T/hkCK6D8In8jfLptW8ro1zrUR8YfyYsE20q9bE98YNH+/AiWuEcT+oP7RCMr4SXLC8uKRYz8mFrIFVuQfpLxIj67Z8IXxz4mw8Sl8e+Oyc41kAqUOEYBzt2xMrFfkzYU+IANkgAyQATJABsgAGSADZIAMkAEyQAbIQH4xkFOBEjAgwtAW34qLi2RFf5Hs2RkWjC2Jmb0x6zYmP0H6VIIduoZDnDp7MlGcWtpdJBAXP70Lm4hKiI/LexPT4RoQTvftdkTMHz+EBDOEQ9CEHWVl8eeoPRA921qLzGzhKNOrZyEjtKE8XtBjzMR7txx7YBO2sc+dVvO3faRptMu2ire6P4j9eo5f/6hACT/r8tNHR6CEmGyPz6l5Y+23vEgLn0HYhQ+/fxcSiJ7tbWHDCa6ZTKDEuagnRFHW1nj73baJ2/QRGSADZIAMkAEyQAbIABkgA2SADJABMkAGcs9AzgVKzL6MLtgQ1cYiECogeo2ZOBbLM5ZtrqwoEoild24kCr1juVy0fWzeG1hvrDcyQAbIABkgA2SADJABMkAGyAAZIAP+GMi5QImJVRDxdv1SSMpK/RmdT5WrAqVXhGM+2TkebNm43omgHVhNgXI81DfLOPbul6wz1hkZIANkgAyQATJABsgAGSADZIAMeDGQc4ESRm3d5HTL/fgmJBfOhuTw/rDn2I1eBcj1PgqU+dOwMDEOIijLy/PHplzzyeuTBTJABsgAGSADZIAMkAEyQAbIABkgA2Qg3xnIC4ESTmptDsv5M864gxCZ3ryIn407Xx1JgTI/GnljgzPh0tWLjJ7M17ZCu/KjrbAeWA9kgAyQATJABsgAGSADZIAMkAEykG8M5I1AmW+OoT1srGSADJABMkAGyAAZIANkgAyQATJABsgAGSADZCD7DFCgLMq+kwkyfUwGyAAZIANkgAyQATJABsgAGSADZIAMkAEyQAa8GaBASYFyTM6ezgbt3aDpF/qFDJABMkAGyAAZIANkgAyQATJABsgAGRhrDFCgpEBJgZIMkAEyQAbIABkgA2SADJABMkAGyAAZIANkgAzkjAEKlIQvZ/CNNTWf9vIfKDJABsgAGSADZIAMkAEyQAbIABkgA2SADGSeAQqUFCgpUJIBMkAGyAAZIANkgAyQATJABsgAGSADZIAMkIGcMUCBkvDlDD7+45D5fxzoU/qUDJABMkAGyAAZIANkgAyQATJABsgAGRhrDFCgpEBJgZIMkAEyQAbIABkgA2SADJABMkAGyAAZIANkgAzkjAEKlIQvZ/CNNTWf9vIfKDJABsgAGSADZIAMkAEyQAbIABkgA2SADGSeAQqUFCgpUJIBMkAGyAAZIANkgAyQATJABsgAGSADZIAMkIGcMUCBkvDlDD7+45D5fxzoU/qUDJABMkAGyAAZIANkgAyQATJABsgAGRhrDFCgpEBJgZIMFDwDU0vLZGDzDtm663DBl3WsPYRob5EUMp9oc2h7JVNL2fbGwLMmF/U1Y3ajrNqwTbbvPSb1M2eTkzHACe/b/OAlA2SADJABMkAGssEABUq+CPJjgAwUNAPti5bKly9/lBff/032n7hY0GXNxkOCeWb35aPQ+dx/4oJpe19+84O0dXaz/eX582a062vj4D55/umvhhHco8lIdu83vJ/Tv2SADJABMkAGyEA+M0CBMoMfCxOKimTtnImyq3WS1JQQ/HwGn7aNDz47l/SZj99bT97L/LYOiiMZvN+xDY28DWWVzwlFMrOlVuYumi6R0sk5ZR9tD23w2Xe/S0d3T05tKRRuJ0yYIEv718jApiGprKrJqE9Hq75qauuc+/PjdzJ9ZoNMmFCc0XIUSl2zHCO/19KH9CEZIANkgAyQgbHBQMELlLPKJ8i/3h2RK8smDfviO7/KSYv0uvxx25Rhz1PYF9QWR8/zcz09L5Pruukzo5EIiEbA8uzjX+TG19/K+u17ZNKk3H6oZrKszGts3GSS1dN//qxf5G+bfLevZPkk24+P9sfvfpU7Tz9KWUVlyuss7S6SG5dD8v5VSH54H5IXj8NyYG9IysvjfTy9Piw/fxeKW5D+6cOQDG0Ly+RJ4ZTXSWZrIe5/cMfxVaqyefnzp48hefMiJGdOhGV6fbz/U+U11o4F4XP9qW4ZOLooyha2sS9Vmauml5k0SLdwzZyUab3ywTk4t7QyknBuOvagDaItfv32j1JRVZ2Qp5cNfvYdv3DbPOfKK6oylqef6+Y6zdz5bdFnPaIeg9qjkZJ4Z/A6N1v1ZV+rdeFiU4bNOw962mCn5Xbh3gtZt6xbMkAGyAAZIANkQBmgQGlFFE2bOkFOL54UXf62IyJBBMrJxUVyrHOiXF42WZqrcxMJoALlja/fyND+E2bZfeSsESghVp6/9VgmTRperFVAuObNIlsMZFug3H34jPn4betYnPLj9/B+R0h7+zIk506F5PjhkNy54ex7+TQk1VUxBlRQe/JVSA7tC5vl2OGwPPnKSX/3RkgmTYqlz5bvxkK+QQRK25+HD4Tk9jVHBP7wJiSzZxWm6OuXT9R1OoJg8cQJ0twzSxauniMVdcHHf8y0QIlyoPsunkM7D55K2SaD8D1eBUr82YjxIvcdPy8Nc+cH9udwAmW26suu26aWdsMDxwbmM8PmgtvkgQyQATJABsjA+GWAAqUlULobAsTJIAKl+/xc/FaB0h1RUVxcLEfP3TAfA70r1wX+mMlFWXjNwr4xZVOgBO9fvf7ZdCtNxdGyJY6wePl8WCKReH93dhQJovnOnwlF24sKlKeOxfYh/+LiIrlw1hHVVq8oTEEtlR+9jgURKN3+RH4Dq526uXqx8Pzpl0/1azoCpZ6b7jobAiW6Jd9+8l4evPpRsJ2ubfZ541WgtH2QzrYfgTIb9WXbOnP2HPNOgj9R7f3cjn8W0R/0BxkgA2SADJABMjBeGMi5QGl3wW6fNkG+WTtZ/r4zIj9vnSKHOiZJ8YR4GLUb9rnuxChA7EPXbKTRCtT8Ly2dJOiC/WJA84/IoYWJ+et5WPsVKJFOu4TreumM1BGUfbOK5fnAFPnrjoj8ZShiyr26sVgwjqVtQ9DtZAIl8mlqXmA+BtziJY4tXLTMRFc+fv8nefLhz3L+5iNZ0LnE0xZEbqzftlsQpfnk/Z/NuGIYX2zj0L6ELuS2Pbj+hdtPTP73nn+STUP7BR/qXmXE2GwXbj8WtQfb2OdOa+ff0t4lV+5/Y2y6++yj6dLulX8Q+/V6Qfyj5wRZb15WL//4uE/+/Z82yH/48wb5N496ZcOSuoTybu2pN92i/+GrZTLB1Tb+dm+pObZzxYyE8/zmrzZv6ak3Nvwfv66Xf/5lvfwnT/pk98qZCdfsaqow13xxqj3hmtiHLtxIo/n+2x8GzD7sT7YcWZ84i2tQ++umzzKs7z32RfTaaoO9RqQkovQqXF25Nc3p42H58UMoKl4mEyiRvqW5yHT99hLbFneF5e7NsHx6G5JP78ImQrOr01t4g9i5czAsr5456e/fCklLc1iQL7qXwwa1b06jI+Ih6lD36Rr7kB5pdJ+ug9iDbuuDWxElGjL2wx/PH4WNje4u7eia7e4C7/69emXMnlT+BN+om+++TSxbz5Kw3LkeNl3y378Oyb1bIenrKUrgE+W9dzMkP30MS1VlkUCI/vgmJB9eh+WL02GprYnZor7B2m/+EKVRZqTH8ACoq/KyIkFULWw/fyYskycn3tP98qk2rT2+WFYdjI2huupgp2CfHrfXqw51Rrt2Q9jEMq0h+RAH8PP8pTNF81w22CqV9aWycM3cpF28g9hj24ZtRPwhihL3bvexdH6nI1Bm8/mCcRTXb90td59/Z55F6LUws2GuiRpFuWvrpo+o3JhsCPnYS6qJZfAMxLP53otP5tmLZ2njvBbZd9yZvGi4esh0fdl1XF1bZ8px+My1EfnEzpPbifcb+oQ+IQNkgAyQATJABsYKA3kjUD5cNVl+3R6RW32T5VrPZPnzoCP6QUS0nZmuQHmnf7IRHJH/9d7J8tugM86kO3/7Wn4FykMLJ0a7hb9c69idSqDcMm+iETQhTt7snSxXeibLH7Y65531EF5tm4bbtgU7d1oVKN2iTe+q9eYj4cGrn+Tgqcty4OQlE+GCDyAMwu/OR7smXn/4WrCN7nqX7j4zeRw6fSUuvdpz6vI9Qf74EEH+iG5D/vhwcue/fGCTOfbwzR/k4OnLZsE20i8f2ByX3s4feWr+X3/7i0kPEdSdfxD7cW5Q/7ivN9xvCHIQ6/7pp7Xy6XKXfHepS/7pR0fI27dmVoL9319eZNLvt45BlEQev9xIFC2C5n98Y6PJC+Lkj1cXyYeLXfI/fr/G7Ht+Ml6IDCpQPj6+QN5+0WGW/+WntSZP/a3r5e3xEz4EtR/+nt+6MGn9a31MmBA2401eOOstUiHdxnWOADhrpvNQSyWoqUB54mh8fhDkINK9/SYsZ06GzdiK337jCHnL++LT4pq7Bp30ELyQHkIazr12ydk/UoEyqD3HDjnXffwgJNg+ciAsX9529qFLvPoT6wN7w4LyY0GXeZRbf+u6rSVW5lT+VIESgqJ9jS2bnGu/ehaSU8fCAhFZhdE9O2N56zkqUF67FDJi5YkjYXl4z7ENIvDUqfEvLEHyh0D57mVILp4LyaUvHLswlumlc2H58o5zjfUDiTb54VPtx3rlgQ7p27Ug6gdsY5+dRrchNrb1N5ilZ6htWIES6SFirjnSJR0Dc6VzXZNA5Oxa35RUoAxij9qla9yTcS+f1xp/L9HjQddBBcpsP18GNu8w5cMzCM+vI2evyc1Hb2XP0XNm/0gFSvhPh2+5eOepyTOVQKn+Ns/TU5fNMxIip/aoGE6g1PMzVV92/VZW1xr74Sd7P7fj70n0B/1BBsgAGSADZIAMjBcG8kag/H0oInMqY5GPmAUbIuLfd0wRjO2oFZKuQIm87Pxrp04wkYvu/PU6WPsVKO1z9i1wxMdkAiXK8pfBKfL70BSZURYrb8mkInm/0REpp5fG9tt5+9lWwc4dJYmuWvhQwofhsuUDUX9OnDhJHn77i4n2mFpaFt1fWlZuIi4gKtpRiMgHkxwgAtIeyxL7t+89JsfO35QpkdikCmrPo7e/yvRZjdH8KyqrzXURgWnng2182MEmpNEya3ocs9Nr/pgMBVEqmh6RGbDz6cffpHjixOj+oPYH9Y9e3+968qRi+d9+WSf//XdrpKosNoFRdflk+R8+rRGIeBOL43moqZgi//OPa42IiXTlUyfK//T9gPyvP6+Vuqr4SZ2C5j9lUrH88y/r5N/9cZ3MnT416rfSyET5L1+vMILinPrY/qACpe0XP128g9qv+etYd4j01X3udVmpE/G4d1dMQJo7p0jQNRmRjo++dCa+gcimUYjJBDWInYiWQ9qV/bH8Jk4sEkT4YSzL0tLYfQzXhjgGEQ8Rk2obxq/8/p0T4VddHduPcRgh1CH/kQiUQe1RkRBioD22JvYf2BM2Qpy7a7yWJRtdvGHDi0chI5BOmRLzT0lJkZnYCNGdJSUx/8MWCJTwm13PsB/CJvZvXB9LHzR/7dY/tcSx5au7IXlwxxFUUd/IH9dRn+jaD5+aFuveHW2yZGtzNB9s24KlndbebuqekVKgxDiViIbEpDv2TN9l1SWy5mhXUoEyXXtgG9oknkOpRDW7DMNtBxEos/18wbMGzx1E/tdMq4/W16zGJjNbNco9UoHS9sdwvkR5n3z4zTxTIQbquXgW4xkLe4YTKIe7huYZdB2JlJheDrCBw87E7mVB/cj09B0ZIANkgAyQATJQSAzkjUCJCEq3Y6/2OF22GypiAk26AqXf/G0bsiFQzv08UziiRO1rYXv5rGIT3Tm/OlZed5rhfqtg554k5/rDN+ZjBF23bcFRx4BCRIY77x0HTppzps9siB6DwIePL3TpRlc29znu32oPIijdx/afuGjyr58Z69Kr9rgFVpyLyEt8zMyYHRM6Nf8zVx8k5I9oSvcHWFD71R6//nGXcbjfC+c4XaSfnohFR+k5z046XaTbGmLCsR7Trt7oRv3o2AIjHO7y6NodNH9NjyhOvZaut/dNF0RvLpoX6y6abYFS7QnqHz8CUGWFIyCh+zLKCJERs3cjOhDdgSsri0yXXYhMboHSntTFniQHXcZtwbFhtnMNTKijftT1oc+T88yaGTuGSM1kohYiAHFsJAJlUHsg5EGsRZdubKvtftZBBErbn+iafuvzJDkQZWGzn+sdP+wIju70KlDWWIIv8ps310nvJSB6Xc8rfwiU6D6u6TFepj1mJo4hjR7XtR8+Ne1I1sMJlKVVJUaE7FgT+3NHr9e9eX5SgVLTpLPOtOAVRKDU+3m2ni/T6meaZ467JwH8dPb6V+bYaAqU9TNmm2viWeuuKzyT3c9Hdxr8zmR9Kfe4Lhb8QTmwaShj45F62c99/u6f9BP9RAbIABkgA2SADOQDA3kjUF5ZFt+VG845ucgRKDF2pDorXYHSb/56HayzIVCiLBinEmWzr5WpbRXs9ANA14gkxIfG5MnxEXZz57eZDwV00dZuY7rWbttz5rXG2apjV+H4hu17pWtpv9TUJo6XiDKpPV4fhIi4hH2wQcuv9uCY7tO1prftSZU/up4jf0SvaB5YB7Ff7QniH/taw233tFUbcfE/e9YvEOHsBfvQbXtZa1Wc/ZonxML/+/eN8n/+tkF+vdntmSZo/poeoqdeJ9U62wKl2hPUP/ohDOaT2e8WKGtrHXEQ3br1nA1rHRHLLVBCKLSXH96HzDiN7vEGm+c7eUL01Fm/da3dpOfPi11P0yM6UW3QdSbGoNT8/dqDa6MbNcqKLstD28JmvMVptYn2qZ26DiJQ2r7ExETo0n72ZFhmTE98UYBQ2r2oyPhbfYn11/edOtG6UjtUoLSFYxwrK3OuYUdQYn+Q/Me6QFk1vcyIkK19sT+J1G+pJsnRNOmsMyl44fpBBEq9n2fr+YJnE545XvnrH3KjKVCmKi+eybAVz9BU9ZjJ+sKfkfp+gbEt0UMD3d/t6M5UtvBY4v2QPqFPyAAZIANkgAyQgUJigALl7oiZPMerUseyQGkLghgUHx8idhdoLa9+wOB4sgVpND3WEDk3Du4zUZT2OdcevBJbPETaVAKiCo52/mqP1weeV/pU+ScTKIPYr/bY5XRv2/bbfvKzrQJcsgljsB9pvPJa01VrBEyk8ZpQB+cEzV/T55tAGdQ/bR2LDc9BBMrGBkeIsydx0fEaVfTy6uKtAlhjQ+LDUQVBW4BzbyON1q+mz7ZA6bbB/m3bA7sguu7YHjZRlHY6CIK2uKpl0HUQgdJrYiHNx16jCzYmx7HtcG9rXel5Wj9ugVKP2+ug+actUPrg07Yr3e3hIihzKlB2JI6Xm045My1Q2vfzoM8XfV54Pb9UEByzAmWG6suu48amZnOf3r73aPQeaB/nduzZQF/QF2SADJABMkAGyMB4YGDMCZTzPneRTjWLN9Jo5eks3uMtgtIWKDEDNUS1I+euR/2i/tEPKq/JajRNqnVZeYU0tbTLlp0H5dnHv5iIiEhJbIzCVB94XoKj2uP1gafpbRE0Vf7JBEq7PMPZr/ak6x/7Wl7bKgje3hcbX84rnXtfZHKx/FdvVpqxKDGBzX/9ZqVgnztd0Pw1vV+BstPHLN5I47YLv/2MQan2BPWPTgi1dfdhz2vj+u4ISghbELuCCpSYERvnnT+T2JVXBUfMyu3lA/c+Te9XoFRRNdUs3kij19H8/dqj5+m6vLxIWpvDsnuHM8EQxtDE+I963F5nQ6DUiFZEdcIW+3rJZi0PIlAGzT9dgdIPn3bZ0t3OR4Fy254j5nk0tzn+j690y5hpgXIkz5eGufNN2fDscZdHhxwZawJlpuvL9ktFVXXSdxM7Hbfj73X0B/1BBsgAGSADZIAMFCoDeSNQ+h0jcmb5BNNF+nZfYhfpu/2TzbGZ1uQzKlD6zd+u6GxEUKYag3J140TBbOMtNYlCk21Xqm0vwQ7jLt74+lszSL89UQ3y0TG5vD6oUl3H65gKghD19Ljak3IMyhmx7oVqj9eYWdpFzmsMSluQ1WurPe4u3nrcvdb0tv1qTyb8474efusYiy9OLYz6zCude9+Dw60mehIzXOss118fjfld0wfNX9N7jUG5a+VMM0t4d3Osy/m8maXGjj9cT4yG+uONbnOsaUapZ9n8CJRqT1D/6OywJy7e9rw2/OMWKGfPSuzivXmDIz5qVJ5XBCW6BD/5KizomozJbNT3WOuYj5j52t6fbHvmjGBjUE6vd9J7iaOYWRrCaX1d7AEe1J5kdmK/CoLuiEs9JxsCpU5sY5dJr6dd4LWudH8QgTJo/ukKlH74VPtHsh5OoMRkOJjBezTHoDxx8Y4RpSqrany1ieHKH0Sg1Pt5tp4v+MMLfwaev/U4rmwYr/nW43fm2GgKlOhSDXu8yut3DMpM15ddn/p+4PX8ttNxO3YPpy/oCzJABsgAGSADZKCQGcgbgRIzWzdWxoS5ZLN4F09wxob8245I3CzYECX/vjMiv2ybIkijlaYCJdLb+fuZxfvthikmT8ywrfkNt/Y7izfKW2/N1o1rfNg4Rf5hdyRu/3DXcx9P9sKPmbvxoXLozNW4smCWasyMff+b76W0LBbphtk/0TX8q9c/ix0RiZlJ0ZXbS7DTD0V70hu1B9eYPis22Y7Oyp10Fu83f0g6izds1nJr/l4fOCo42gJlUPuD+kft8rvGLNX//Mt6Mws3ZufW8zCb9n/8uNfMzI1ZunU/1ktbquT/+X2j/OPjPikunmCWf3zca/Yh4tBOGzR/ncUbM3k31MUiYTGLNyI2/9+/bpJGaz+u/29/GJB//6cNcbN+z5tRKv/hzxtMuZDGtkm3/3ZvqREw7dnL9Ziug9qv52ENQeDJhz9LiRXRax93C5Q66/L9WyEzQU5VZVge3hteoESemLkbYuC5U/FRlJg1+8PrsLx+HpLysth9BF2JIZy9MxGIMfES+71m8cbkOR9eJ06SA3H0zYuQmcimzhIiIaR+eudcF2m03EHtqZtWZMZ29BJYL593ygzbNH97rZP62LOX28ex7SX4utPYvw/sda65vC/mMxyHMAw/oA5GIlAGzT9dgRI2D8enXe50t4cTKFPN4j1wbFHGJ8mZWlpmZpVG2dMtk/s8fe6UV8T+OHGn0d/RWbyz9HzBdXTs5vVbd0tpWbnALoy7iOcvltEUKJPP4t0gj9/9auzBM1T9415no77sa2gX78F9x5PaYKfntve9ln6hX8gAGSADZIAMkIFCYSBvBMr7KybLn7ZPkZu9kwWzd/95cIqJhjy0MCZGqdPXNDoTzfw+NMXMen2jb7L8PhQx6RGFqOmwVoHy0arJJs8bvZMEM2j/Nuik98pfz9+3wJmk59v1U+TM4kly2lo0DSa9sfe/XOvYjfLY+zU91lvmTzS2wn7Yc2XZZPnDVuc8XMdOG3Q7mWAHoe3ei08mitIWEJF/3+oN5kPlwasfzUzZe46ek9tP3pt9m3YcSLDn3PWH5hgETIiAOw+dlot3npp9iByxZ/dWe/ARiQHxIZAimgPCJz7WvLpOLx/YZI49fPMHOXjqslmwjfTLBzbH2aP5+xUoUd4g9qfjn6B1dmxDgxHq/unHAUHk4rfnOuS/e7/a7Lt7oCWuvCVTiuW/+Xal/F9/2ShtDeXRYwsay82EOf/t21WCNLYNQfLHeSc2NZpr/7s/rpMfriyS9xc6Bd3IMQ4kZha388b2nlUzo+kxcQ/O+d9/XW/2IerSnV5/XxhsMmn+i5cr5O0XHdHFFkaRNqj9mv/qDdsNM8nGN5s61Yk+tLs7nznpCGAQurDs3eX8VtErmaAG4e/VMyeK0i3YDaxy8vj2m5CcORGWE0ec2cKR/66heKENtu8adNK/f+Wkh+iJiRn+zgAAIABJREFUSWMufeHshw1aRqz7e539H96EzMQy506FBbNfI/++nsSHdVB7dEZtCKqImjxyMByd3fzujVDS2b01+vTr+2E5cTS2YDIitT+ZP/W4e40oVwi4iFbFbNnHDoUFQijKq/7RutJzg0RQBs1/JALlcHyq/UHWGFOyrb8huvQMtRmRcfHG+dF9OG7nOX/pTJNmzZEu6RiYK51r58rqw52yZEtzxgVKCFG4j69avy3OBtueoNsqUGLm7L3HvkhYVqzdEnetbD9fGuY2R8U/lBXL5XvPo5OzjUSgRHS/TjKDtT534QN7v+3DTUP7jQ14hh44eUngJzyLT1/90uxPJVBmo75s21rau4wNXu8Bdjpux+6Z9AV9QQbIABkgA2SADBQyA3kjUF5cOkk664rl5bop8vcdU+TnrVPkUMekuGhIuyKWzSyW5wNOhCMiJ7G9ZHq8MIP0KlBiDMrF9cXyet1kExVp8l+YPH+ci0jM/e0T5cctTmQjZt/WRW3Z2OSIpbo/2VrT67pvlmM/Ijv/MhQRCJsQXicUjazBpRLs8FGIj6WDpy/HfbDBps7uXtMtDRFniHaE+Likb3VCOqQtmVoqGJcKIuaz7343Y09iGx9IiBjRMmKt9kD0nN+60ESXIGry3vNPgg+n4uLEOsN5XUv65cLtJyYCDjZhG/vsvO38gwiUQezX6wXxj54TZL2td7ogChJRh4ioRPTk3tWzEsr7+FibEfW8xmS8d7DFHEMa97X95q/nbe2pNxGaiIyEPf/p0z4jRNrReJoW641L60x62I/l3zzqlXWLpyXYYZ+D6MiHR9qi4qdOhIOZwe102A5qP85B9BCifcF8/5qNCXkizae3IbEnaMFEKiv6i2TPzrBgbEmIaZghuqbaaZepBDXM/g1RELNPu+1f2l0kEPMQ1YiISohmy3sT0+E82ADR9NUzJzISM25j3EeIfMjfLVDinEWdRXL3phM1iWvcuRGWzoXe+SN9EHsg5O7b7YiqP34ICWYsf/HYmZUcM2G7y6q/IdrivNfPHLEUtmOxBcRU/tR83GtMzHPjckgg4MKX1y+FZH5TWDBupzt/nBtEoET6IPmPRKD0w6e77MP9ntVWa0RFdNtOtdj5oE1DpFx5oEPWHl8sPTvapGZWuWR6Fm/8uYS2iDZpR8HbtqSzrQIl8vZacNydbzafL7hWdc00Gdg0JBgDt3fVepkSiZg/2mDfSARK5OVVRvc+u7x4xkIAxDP3yYffzDO4eUGn4JmJ85IJlNmqL9s2jEMKGyCa2vu5PbL3QPqP/iMDZIAMkAEyQAbGKgN5I1Be6ZnMF9QRipP5CKEKlF5jYOWjvbSpsG7mEApuP/1gPoJPX7kv+DC36/jKBUfkgghn78/HbR0f0UugzEd7adPwTA3HZyH4EFFyGq2HP7JQ5kIoV9Ay4I9BiHE1tXV5Xf7RrC8I1RgfG345e+2B7Dh4Utw9PIL6memHv+/QR/QRGSADZIAMkAEykK8M5I9AuWxkXZvz1cHj3a6YQHkhrz/Kxns9FXL5MY4aIniff/qruKOp2tuKTHdhROGVleb3g0ongaFAmd/1FLQtpeIzaF75mB5tDm1vz5FzJvo+H20cDZvQHRs9DjIZPZoNu0e7vioqq2T34TNy5+lHef7pd2nr7Oa7QgH+WZ0NVplnYT0LWZ+sTzJABsgAGQADFCj5IpjVjwEKlLzR5MvDBrMGuyMoYdvWTc7YkRjHEF12D+8Pmy7W+WK32kGBsrDbUjI+tf5TrbceuC7ZXlJdP9UxtLlMzdid6jr5dGzVhm3RMSF3HDgpZ64+MFGC+46fz+rzNhM+GI/1lQm/MY/Cvj+zflm/ZIAMkAEyQAZGhwEKlBQos/rBRIFydBoyb5gj8zPGeDx/xhn38aePzozQ+eZTCpQjq+N8q0/aU7j1iTGc0W0ZC6JHER2IcZsxFiXrvXDrnXXLuiUDZIAMkAEyQAbIwMgYyLlAyQocWQXSf/QfGSADZIAMkAEyQAbIABkgA2SADJABMkAGyMBYZoACJSMoGdFBBsgAGSADZIAMkAEyQAbIABkgA2SADJABMkAGcsYABUrClzP4xrKyT9v5zxQZIANkgAyQATJABsgAGSADZIAMkAEyQAYywwAFSgqUFCjJABkgA2SADJABMkAGyAAZIANkgAyQATJABshAzhigQEn4cgYf/2XIzL8M9CP9SAbIABkgA2SADJABMkAGyAAZIANkgAyMZQb+RSQSkdFaysvLR+1ao1UmXmf0+KGv88vXU6dPFS70gTLA9plf7ZP1wfogA2SADJABMkAGyAAZIANkYCwxQIFyFAXasQQGbeWNbDgGVJjimiIlGBiOFx7nPYUMkAEyQAbIABkgA2SADJABMkAGkjFAgZICJYUFMpAWAxQmKUzaDCR7yIyX/SUlJYJl6tSpXOiDUWdgvLSz0Son2zLvY7m8l48W57xOokDAts+2n8u2nw/XRhvgvSHx3kCfjJ5PKFBSnOJNiAykxYAtTnGbYuV4fnCXlpYKhjDhQh/kioGysjIjio7ndpipsrM9sx3nqh3rddGeKRKM3sew3jvY9tn2tQ2O9zXagrYLrkf/XjTefU6BkuIUb0BkIC0GKEpSlLQZGK8PU3xIjvcXWZY/fz7qEH0xXtviSMsNQYjtOX9YHu/3Ff7pMHqiANs+2/14v994lZ9/lIzePWik7y+Fdj4FSopT/JghA2kxYItT3KZYWWgPRz/lgRjk9VLHffzYySUDfthlmsQPD0ZPsd3mst16XRsCAdtqYlvNtE/Y9tn2vdof95ULIymzf//J9P2sEPKjQElxii8/ZCAtBihKUpS0GSiEB2LQMvCjhh81+fgBwyjK9D4oGD3J9pyP7ZldvdNrz0Ge52z7bPv52PbzwSb+SZL9+0+Qe9V4SUuBkuJUWuLUeGkgLGfyG7MtTnGbYmWqtlJVXSPrt+2WoX3HC+p+w48aftTkwweE2wZGPCR/bqW6T7n9yN9s3/nAAP9wSK89p2rr7mP5UM+0gfebfGXA3V4K4Te+R/Bdgu+TQihPoZWBAiUFSjZMMpAWAxQlKUraDCR7OC5a1i9fvvxRXnz/Nzl46nJarCXLO9f7GUEZ/IOipqZGOjs7paWlhd3jszSxEgWN9ASNfP04pF3B7zOF5DNGUKbXnoO8HxQSL+OlLHyXGL37YpC2NFbSHjp92XyXPHj5o3Qu6S2ob5OxUgep7KRASXGKjZIMpMWALU5xm2Kl14Omu3elPP/0V7n99IMs6OxOyRk+wvpWrZf1W3dJ/fSZKdN6XSsX+4YTKOfOnSu7d++W9vb2MSHGzZ4929gLAXG4j5xdu3aZtChfsgX5ufNZsmRJNP306dMTjrvTZ+q31oVt69DQkKxevVpmzZqVlh2NjY3Rsmi+KF+mbE43HwqU6Qkaqfyt/BRiW0a5KyoqZNGiRbJlyxZB296+fbv09fUJRIBUfsnFMa0LbXNYF2pbhn8pUKbXnoO8E6TiWHlj248JYvX19TIwMCA7duyIewZWVlYm3C9SpR3JM5TvErH6SMVvJo4FaUtjKS2+S/B98uy736W7d8WY+O4YS/4dia0UKDMoTk0tmSobu3fKhS1fys2dL+TWzm/MsnfFKUKfhp+Pr71i/JcK8FULN5k014eeSWVZVdTPFWWVgn2oA6RJlQePpffyN95FycsPnpt/3zLph8aOeSZPRBvq8uzjX+TWk3ey5cBBqZhdKeleb173gmiemveDVz+mnZ/bDnc7gsj4+N2vcvfZd1IzrW7YNtiyoDNqH/7ZdOc33G/9N3R249zA5w6Xd7Lj41mgxMfBsmXLzLJixQrzkbJu3broPhyrq6tL+FiZMWOGET66u7uNKJKJl2c/eehHJj6q1O6VK1caMWbnzp3iJaYOly8+vDSv/v5+44OxIFC+Xh+Rf707vft+srZQCPtT1bfyU6giBcRICH2bNm0y7RPtBL83b94sXqJDKl9l+5jWxXhoy/BlKoGytCQiZ5ZE5JdtEfmH3U67Rtt+sCq99t1eH8sD+WD5dXt6eY2le0IqZpU3tv2YILZmzRrz7MSzX5+BWOOPDrcvU6UdyTOU7xKx+nD7PNO/U7Xlsf4+ge8TfKc8everTKufPmrfD6l8ymMRoUCZhnCWDJze1tVGEDu5/rpsXrJHNnXvNsuylpUEPg0/+xUoz266Izd3vJDu+f1RP3c19Zi6wDEKlNl5uXQLVOPtdzYFyltP38ruE2fMsu/Mebn55K0R7y7efyoVsyrSEhVntM6O5om8H3/4k2RToNx37Atjc2d3T7RdJrt3Yn9ZWbkZo/LAyYsyr2WBr3Ps/PJZoFywYEHCS3umXyAzkV+QCEr7eumeZ+eR7e1kH5mwHRFjEDtGYgOiQSHoUKDMzvPGbuvZ2k5V/8pPIbZl/JEAdt1tAH8iYH9bW9uI2kYqv6ZzTOvCLRgVYluGf1IJlENtjoj4bmNEzi+LyLmlzrKtNb12OKsqlgfy+tsOCpTKG9t+TBDbunWr+TPDT/v1mzafnqGpyqU8jJf7D3yR6pk71gVKlA1dvBG4sfvwmZRlTeUHHkvvmZPMbxQo0xDOkjkToiQi9hrr5xHwDPjVt0C58bYcWv2F7F8Zu7Hs6j8mx9ZeFojFFCgze9NQ/sebIOkubzYFysPnr8SJkGUzy+TEldvmAbpy6+a4Y267/P6GOJktgRJdTB+++YPpOqG8ZHud7wJlR0eHbNu2TRCtt3btWpk5c2bCR//g4KAg2gAvwBs3bjTCGSKYWltbE9LipRF5apdM5N3T0yPV1dUJaREB1dXVZaKhcH18MCBiqra2Ni5tMqERAga6ciG6yitCItl5+pKP60PosBeUS4/ba0RhwgcQ+nDNxYsXG1/BZpQV17LTY9uPH5J9VOD8DRs2mHrRfOfPn29sdftdhRxEimhaXQf5uPJjr+aLNXwBERXc+IlmG66LdyF8UGTjfmL73L2t/ECkKLS2PG/ePMO7+4NbmV66dGmUd7RNtEsvDpMd88u73/uf1oXbXtRZobVllCmVQHl+qSNQIvIxG20C0ZOMoHSGahnvbR/PYPsZ7rWt94UgafVeq/ebVH/yBXmXsO8TeP/R9y/cpxB9qde1137uVXa+9rnYLsT7D8qV6t5SCO8TuMfefvJevnr9U8r7bSo/8Fhmn0EUKEcopKmIpt25vdZeXbw75i6Ro2svybXBJ3J96KnZxj4vwJEOXcZrKqcJ8rq6/bFc2f5IIMLVV8/wPKe9cbEcGbgYzf/wmguyoLHLMy2uuXBOtyDN1cEnJm+Ie4vm9UpJpMTznM6mZSb/y9u+lsvbvzZiIKIWvdKXTi2T1R2b5fSGW6bb9c0dz+Xcpjsy0LlVcMwu88WtXxmR18uPus+OSIX4CJuxD/lWllebPOHX/gVrjW1eAqVf+2fUzjb2DPUekpbZC+XEumumDOe33Jc1nVukpGRqnP1aFr/5Iz1ujLDxi833TN6ot9l1c2XLZ8G7viZxPL4g9ZsOP1qOVGtbCOtes0IQ3YeovCcf/iwX7z2RRav6E4S0JWtXGpHt/N1HUjqjNO742ZsPzLHeDWvj9uM6fvNXm7oHVhobHr//Vb5++4tc+vKZ9G1cl3BN7fa899S5hGtiH/5RQxrNF4Kedo9Otl61bWs0vZ7n137t4u0WKJFPW88ic237WFD71R6sgwiUfuy3WZnd2GRsRTSkvd9rGwNUu32ZasBqiC9bdh2Uey8+GdYu3X0qzQs65MDJSyaffOzija7EENd6e3uNyIQXe7ws68u8vuTiA339+vWCNbpOLV++PDrGE16KNR3WEA2QD4RM5KtdMnG+nQ7byAdpcQxp8YKO3/iIsAXNZEIj8oZAlmysxmTnqR0QNe1uYBgvLpVACSEUPlORFvajCzXEVXwAaL5Y+/XDcB8VEF0032wKlH7tVVuwhr9QX1i8hG07Lba9BEqIDNplM9naHXX1cp3TbXRGpdNl9PehiPxlKCJ3lkekoSb+ZVS7hl5YFr8fbR77cE0vEWXlnIi8WOtEav19p7O9vDExD697R6b3uf1o/1Z+CrEtNzc3G7awtsuMPzDAHO4Zuh+iIPa570dVVVXmHoH7lqbFOgjvfu9/WhfJBMpCasvwoVugVEEgWTvGfq8u3gNNTvv682BEfhuMyKv1EVk3LyIlKb6D/AqU5VMjcqgzIt9tisi/3BmRf7UrIj9sicjRrojgmFdbZdsP1j6y8RwP0vYxRq0+x9HG0F71t671D8wgafV+4UegDPIuofcJjDONdx38KYs/+XD/wm/cs/TaQe5Vmu94uf/AN+72W4jvE/hewbfIcN8QfQ0RwT0US2+D973N7S/+Du4nCpQpHsx+gFq+YF20Kzei9SCi7ew7Gt2Hbt62oIY8tSs4xL0dfUfMgm2c29u6JuFGoALT/lVnjZC5veeAEcqQHkJZZXls7EXkj+vhGMS+Hb2HZaj3sFza9tDsWzyvLyH/ntZV5hiEPtg+2HPIjKOJPBAV6vbDyvYNJj3G2hzsOWjSq7C4btFgQvqty/aZ9Kc33BRsI08IoMh/Z//RuPQbu3fJ9p6DZrn82Wb9rev5M9ui50DYQz511TOMQLlk/nJpn7PY7FNx0S1QBrFf84DvIcRCFIY/IRDjugNd26K2qJ+C5I9zNP3VwceGBVzj7Mbbsm3ZfnMNt0AZtH6D8qPlGG6tYhcEOdzUH7z+SY5cuCaHL1yVr978ZPb1b96QINYduXgt4RhESeSBKEHNV9dB8189uM3kBXHy6KUbcuiLK3L/5Q9m3+5TZ+LyDyrw7Tx+Sg6cu2iWr978bPLU37pu7+uOu0YQ+/0IlLiO+iao/Xoe1n4FSr/227ws6FhsfLNt9+GE9mGnwzbS7Dp02iyX7j4z56USKLfuOmTSIELz8JmrcvTcDYHIefz8LbN/uJcL9/VH8tvvGJQQ2mwxUj/a3V0n8cIPIdD++IcghX2ILNSX6WnTppmX7FWrVsVFNGJyG7x8Q2DTtBAZMOGFLTLgmAoNdrc1L6FR06G7p+bpXnud505j/4Y4mUqghJiL9BifCuVRP+EDA77QvIL4IdlHBWxHnnb31mwJlEHs1TJijegPfFBBHNMPQPu4e9tLoDy7JCJXe50FL9YQMfS3rrtnxb9EqkD5aHVEsH2lNyLfbnDO/XlrRGrLY+nTESghiMIOfOzc7I/Ijb6I/OmzbRvnx/IeSRsNcq7bj/Zv5acQ23IQkUKjiBGtbfunqanJtNWWlpbo/qC8+73/aV24BYJCbMvwsVug3NMe64b9fqPThm4tj+1D12z3nw37Fzrp/rAtItd6I3Ktz2l3aH8nFidva2ibWIZrR5d6nPw/bIoIthHZCQEU+d9enng+2365BGkf2XqOB2n7dnvH8wj3Qntfsm2/af0IlO5rpHqX0PsE7LTFSIipeK+we0gEqQvNd7zcf+Bzd/svxPcJfIvgO7StY1FCee3y410F9zUs2LaPcTtz/qBAOUKB0oZRI95SdfFGxCCEKIhdtZWxiSOwjX045o4qhMAEMWz9oqFoQ0CkIoRE7O9vWxvdXzq11OSDaDx70hhEFkLMhOhnR/2pPbiuLYSVl1UIBEXkb0dpIv25TXeNwFheGrtplZdWiDMW5HPBBDXqF9iJvCFm2uXCfkwotGf5ScG1NL291uhUe5972xYo9686I3tXnJStS/fJ0YFLxm7YbwuUQe1XgRLiLaIa9frwCcqFiXgwOZLuD5o/zkU+iPi0/QyGdKIlu16C1i/sCsKPlsPPGiJX+cwKefj2F7n3zSepmTstKpzVNtXJ/ZffC0Q8dE+2hbHapnr58vWPRsREuuo5tfLlqx/k4bd/kLr5M+LSBs0f4zM+evdHM9jx7Pa50byqGqvlxuM35uEza8Gc6P6RCHx+ungHtT+ZQIlo0+OXbxr7V2zZlBH7/QiUQey3mdHxXDbv2B9tG/bxZNtIjxeEZAJlWVmZPPnwm3z97S9SZ8303djULA+//cWcm48CJQQm+8UaoiNekN1dmfCBjpd5Oy22IU4iik73e4kBOKYv2e589Tx7reIfxFLd7xYakQaREnjBTyWMuc/T/JKtU31UoKwaJYmPCvgJXVCRlwq7aksQP+hHBYRIjfZAtBeiMrE0NDRE/ZAtgTKIvcl852e/l0BptzmNwLL3eW1DlMRL+ElLwEC0FcQN7N+1IPYyGlSgLJvqRHFB6Kwpi+UD0RP7IKJOLYnt97Iv0/tS+Vb5KcS2HFSkQPt036cgWKKt2hHZQXn3e//TuhgPbRlMugVKm/tU0cmaDhGMiGaEYFhZGmtTVWUR+WGzE+1YbbVBPQ9rPwIl7gl/3RERiJ92tCT2YwKf+ysjgmtpvmz7zliOQduH1/1ppM/xoG1fbfArOiK937TZEigxTIzajTV6guBeZf/pGqQuxtv9Bz7Ttuu1LpT3ieG+P7Tsy2Y77yh4T8G27uc6s76gQDnKAmVD3Vwj+qHLsBtmROZBUJtdNyfumApM06rq4/bPnd78Oa9YlJLmj8hNd/6bl+w26WdNa4we0/S4tjs9upwjwnPOdH9jamrEH/LUvCBEQnxDl+5UL1ma3l4HESgb6pvMJDkQDCGG9rUNiJbNFijt/N3bXvarQHlw9RfRMul5iHREfSGN7ku19s5/lsnDHUmKfHBNIxBbXby1TH7rF/kE4SeV/e5jEB2bFrUaUQiTrtgiJLb3nDxrjs3takk4pl290Y1657FTJl3vxsSu3UHz1/SI4nTbs3TdakH05vzu9uixbAuUao9f/6hA6Z4k58bjb42P0HXeFnxHYr8fgTKI/TYf2RIoG+Y4s5wfOn0loc2dufql8VE+CpTuf9q9uk7iJRAf6HakpL5UY1wkiGkqzOlHBSIoVWzDWkUCd3QTzkO0AF7INb3O2ovfeh0VGmED9kOYRHRhsq7d7vMQwan7Uq0zJVAG8YN+VODDxF5QVpTbtjdbAmUQe217gm5nWqDExBlx7XuGI1DesKIHggqUrZ9nC0a0l503tr/4PK5e87TEY+60mfydys/KTyG2ZeUSa9sHye5T+OBHG7LHcYMIge6T9vmar9/7lN/7n9aF3Y6xXYhtGf5M9e7sR6BM1UYuf458RHv0SudXoMRkOhBB/fypwLbvzHQdtH1k4zmuNvht+9q+/YqOSO83bbYESvc9W6PA7Xcf9YOfe9V4u/+gDr3uDbovqECZr+8TfgVKLTfX3s+MTPmFAuUoC5RNM1qM6IToQXclYh8EKQiP9jEVmOzIRxyvrqgxAqIdQan5owu1ziKua+1Wbeev6b3ssW2wt/Gy1N64yIwrqXljrV3c3RGk6AaOch1fd1XWdG4VjM+ILtl2nl7bQQRKdPtGxOipDTdM5CciUrEP13ULlEHsV4HSS1BOFjEbJH8Vmb38r4K1HUGp9eW3fuHXIPx41UOyfRAAdVzEKw9exM0QDUEO+xAN17qsKyoI2qIhxMJn3/0uT7/7TU5eu+OZJmj+mh6ip32tZNsjEfj8RFCqPX79owIl/GYv8NGW/QekcnZVXLlGYr8fgTKI/TYn2RIoWxZ0Gr/sOHAy4f6Rz5PkuF+Qk334J/tA148CXevLtPsDXX/b3bkR0QRBUI+51/ZLugqUdhp0D7e7R6kN9lrPy5VAadtrb9t+0I8KrQuIK0gL4dcuC7azLVDaNtrbtr1um4L8zrRA6RYd6iqcrk0jiaDs+ixyIqpLZx7WtXYN7ZyR3Rdg+56F7VQ+dvOjaQuhLev9xK9IoRFIGk2qbQl/pKhfsNZ8bcbtbTfvfu9/7rrQ6xdiW4YfMyFQog2vmOOME6ntDGvtIu41PizahB+BEunQbRxR1W/WR+RIV0Qw3mVDtXf7Zdt3IiiDtI9sPcfVBr9tX9u3X9ER6f2mzQeB0r4/2dv2vWq83X9Qh+5npf07qECZr+8TFCi979d2XY/mNgXKPBQoIULZECQTmOw0uq0CFoS5ZIudv6b3Esg0T3uNLsyYxCVZ3tjvFijLSsvNhDKIorTPg6Bpi6X2dbAdRKBsntUe5zOcj324ni1QBrU/qEAZNP9U/ocoCvu9BErbj+5tu37hhyD8uOsg1W9boLTFNPc2RC4vgbBzRU9UhPOaUCed/FVQyzeB0u0T+7ftHxUo7YlwLn351PipaXFbgh9HS6C07XVvq/02K53dTt3igW/vH257uBcECpTxHzba9Vk/GrzW6O6NF22Ih7bQ6BVF4BYaFy5caM61u4F7XcN9nlcae1+mIyj9+MH9UQF7dPIfdJOz7dNZje0xqnBcfeblDz8fV/ox6Mde256g29kWKL3acdAIShUpIGokW5DG61rZ2pfKz178IH2mBEo/TGSrLSuXQUQKTPKlE3Lp2LdoH7YPNV8/ZcN56QqUOLdQ2zLKNlKBEt2uMRFVsnaG/SMVKCtKHWESUZT2dSCAuv9oYNvPn+e4ttEgbR9M+hUdg6T18wxFfvaS6l0i2T1bn+P2n7PqBz/3Kq98C/n+A3+neuaOVKD0yjsX7xPR74/unpTl9bKX+zL/rkaBMg8FSrdoF0RgUsELM2T7aTCa3q9Aia7TEMQQFVldURt3jWQRhbYdOGfezDZZ17Vdbux4bsbExPiVdhrdDiJQts7uSMgD+2CrLVAGtT+oQBk0f4i5sNFrMiLtQu4lUPqtX/gyCD/qez9rW0DcevBQgnjmJUrqvvLZFYJuyxiLEhPYoEtzxezKhDxUcPSbv6b3K1CiuzcEt1SzeNtdwtV+rINEUPq130ugxAzasPH4lVsJ/hmJ/UEiKP3YbzPT2t5lbB7cdyyhXdrp3NvRF4QlvZ7njVWBUiON9MU61RiUXl289Txd63hJbgFNj9trvDjbs9rqMY06sl/SvYRG7eaN9Hque+11njuN/TvVRwXKH3QMSj9+8PqoUD/a0RGwU9O6603L6R7TCuf4+bjS6/mx1/ZX0O2DAyzGAAAgAElEQVRcCJQLPnfZTjWLN9Jom1eRArP86r5cr1P5ORkThdCW8VGOPzE0ulj9oEx7CfJoMxj+oaamxoiDmzZtSrg/BOV9JAKlXqvQ2jLqYqQC5c4FjmiIKMf6ivj2NlwXcb8RlHbbxTUWz4zIiUUR+Y92OePJ2mNQsu07Ipsy6+d5kK3neDptH0wWmkAZpC70WWDfL/X8Qrz/oL7t9u3ezoZAmYv3iaH9x813S0t7Z8ryusvP3/HPlEz5gwLlKAuUOoag15iP2qU32RiU7i7eXhBo/l6CV6r0XvZ0NfXI7v7jMqd+frSxqo3Ta2ZF92m+GvHnjqDU4+61CpruiD9Nlw2BMqj9QQXKoPlDsIVAiUl9tNxY44UUkw7hmC1QBq1f5JVNgVLHKNxz6myCeGaLee7toSPOgwAzROss0TuPn0zII2j+mt5rDMqeDWvNLOHNSzqi15nd3pRU/Dtx9bY5NnthbLIduxx+BEq1x69/vARKTJBz88lbef7przK3qzVqO2wZif1+BMog9tv8YgIbiKqnLt+N49pO47U9nEDZMHdsjkEJwc3vLN5+BEqdDGfNmjXRcSnxEomuyfjItz940O0R4oMtMGIsKx2vcjiBEpPH4Hz3+HK4ni4q3I12F+8gfvD6qID9mDEck+QgEk7Lg+502Adx1q43HbcTHyOaVtcQauCn/v7+hGOaJoi9eg7W8Cs+CL26sNrpdDsXAuXcWkcEubci8WX1/grn2Nya2DEdhw6z/XrdC3KxT/3ntVZ+CrEta0SR+36iY022tbUlMK3+WLBggWkrXhNzBeV9JAIl6qwQ2zLKNVKBEmPFIqrRbn/avq5/nvBqpBGUmp97rQKoHQ3Ntu88O4O0j2w9x9Np+2AyGwKln2eo+96c6s9OvUfZQiLO1zLb7z5B6iJZvoV6/4HP3O3a/p0NgTIX7xOnLt8z3y311gScdjm5PbrvahQoR1mgRBdgzNp8eVuqWbxL424GQQQmzPJ8Zfsjubj1gVSVV0fzwXWRD2YKt2fZVntgU1319Gh6ncUbM0nb40Vu7N5lRLPF8/qiadFoZ02bIxe3fmWO2QIlZqZGV24vwXTvilMmvT1pj30D2L/qrDluz0ZuH8c2oiMh4vmNoAxqf1CBMmj+KIMKsSgLZluHaIkxPVEut0AZtH6RfxB+bP92LO6Rh2/+YJaFi5bG1TfSQSDDLM9fv/3FzMKN2blVwMNs2uiajJm5MUu37se6ZVmnPP/+d7l4/6mUTi8zC7axT7sLa/qg+cdm8f6jzGhriF7XmcX7WyPyzWprjO7H9SHUPf7wJ7Fn/W5Y2CRPPvzZlAtp1B57ffbmA/Mws2cvt49jO6j9XgIl8sHM3RD8jl66EWfLSOy/9vUrefLxN4Fv3Hbr7yD22+xg+/aT98aHVVWx+5A7jfv3cAJlslm8IVw+fver8VE+TpKDD3+80OPfdQh9ELLQRdIWv/AS6PcDHWlVYISIhnxXrlxpIprwkowXfaTBoi/TiKJcvny5QGTDSz3Sww77JT2Z0AjRDWlbWlqi+Wr+WCc7T9PABlxHF8xIjkV/Y60CapAISuQf1A/ujxX8RtnsGT2Rr3anhT/hM3RnRTrYp5MVafl0rWngZ6+yBbFX88QavsK1sSBizz7mtT2cQPlotSNY2LNnu9sifuss3u4xo7zSIg2irTBZxhxLiIQo8vedEfnj9vgJNDCT71+GnP3TymMvvuiOiuv+NhSRZDMLe10/E/u8fKn7tB0ValtW8R2RkLifoJzgDfcK930KPsE+3FNwX0M6/JGhvrLXftsnzvF7/9O6GA9tGX4ZqUB5donT3jfOj7UztJeWOqfNpuri/W6j037tCEh3W2v8/8eaRFdurz8bHqxyrj3fmvCKbT/2557f9qHMZ+M5HrTtg8lsCJTId7hnaJB3CfWZ+z7hJVDi2kHrwp1vIb5LwC9Y3G3e/l0I7xNV1TXy5MNv5rvFLpvXNt5RTnU7y1LO4p2SDS//+d1HgXKUBUpUTG/raiM8QaTc0XvYLNiGGNXbuiahsoMKTMtaVpm8Lm17KIjo295zIBqNt7Zre0L+PZ/tgUiJ2aTRfRszYcMezPxtw4TozutDT+Xmjheyf+UZ2bpsn0BIvLr9sexdcdKcYwuUOPfwmvNmP8qBqMktS/fK0YHLzr6BS0lfvla0rzdpIHBu7zkYXWwhNahAGdT+oAJl0PzhH0SoXh18YsqqouSJdVdNPbgFSqQPWr9B+dH6Pnz2qhF8IIxhW/frWkWsVdu3mnRfvflJELl44OxFufPsg9m37fCROPELk7zcevJOnn38i8zpao4eQ2QgJsy59fRdwkQwQfKHTWsGt5trP3r3qxy9dF0OfnHZdCNHOTCzuNqt676N66PpMXHP0YvXBeciPaIuNZ17vWH3bpMGQt+Bcxejiy2M4pwg9icTKCEU3n/5vRFYGzvnx9mUrv2b9+3/bP9L4xdMbKSLXVa/9isXul63ZafJf8eBEwnsaBp02d516HR0uXT3mTnn5KW70X04rumx3rrrkEkD8RyzeR89d12+ev2znL3+ldmfTKDEOFg6NlZvQ/yHmp1/kO3S0lLPj3J9qbNfkBEFhwln0C0SIqWX0OT3Ax35QyRDF2QIaMgTgieEBbx86/V1jfGVIGTi4wbp0GXT6yU9mdAIwRO2JZswJ9l5ev1FixZFBTYV2txrRH8ifVCB0q8f7LpQu7DGuJwoGxZ7jE4cw6Qf6l+UHaKjO42dF3yKWUBtQRHl1LIhrV977XxRX6jjVOKonX44gXLvQqctQHy42htb3JNaBBEo0W42zHfy/esOZxKdW8sj8vuQs2/dvMQ2t73VOfanwYjc6IvIld6I/LDZ2Xd8cWJ6bZvZaMvI2/ahe9vmpxDbMrhExKTyjvYA4cL+s8PtE43qQlqc7z6O30F4Rz5g3Csfe59dF/b+QmzLKN9IBcrWOkdk/Fe7IvJwdUQu9UQEogLa5pcrnfaWLILyYIdz/O2GiHyxNH5CK22PWD8bcNLhnoGoSSyv1jn7vlkX/+cE0rPtO8JPkPaRred4Om0/WwLlcM/QIO8Sye4TXu8+aGd+6yJZvoV6/4Fv7Lbu3h7r7xMoz86Dp8z3w9rNO1KWFWmXzHLua/ieaLb+eHH7hb+Tv8P58Q0FyhwIlKiYzrlLBTMxQ+zDgm3s86q0dASmjrlLTLdh5I2ISuSxeJ73uG645sI53Wbym2uDT5z0A5cFUZIlkZIEmzBG5sFV50wUKPI+sOqsoJs2xrGEoOYWKCvLq2TD4h1GJL2547kZexLdlxEliJnIvcqMfYgWxHkqlqp4Z+cfVKBEvkHsDypQBs1fyz6tarpAkF2/aEiWtqwURLBCvPYSKHFOkPpNhx9cAxOdaAQloinVVl3bItbStatMRCSiDhFRiejJ/k0b4oQ0pN91wnkIeI1puP3wUfOAQBo7b2z7zV/PW7J2pbEHkZGwB92xIeShu7SmsdeLVy+P2o8yXLz3RBat6vNMq+dBNNxx7ERU/ISgiQUT12gaXfu1P5lAiXzW7XQEP4iomq+u07G/bGaZbDlwUO6++M4In2o/1pqvrv3Yr1zoGtGO1796bXyyar33mLgr120xx+1re21rnlhDfNmy66Dcf/G9+cfzyv0X0t61RIabxftQp/NS8d3miJRk6L4/nEBpfzxzOxY1Ql9k1xfDCZSIYDrdHZFftsVetL2iqIIKlGify+c4E3IgahILJufoS/GHwOqmiEDAQFpEVOKaEDrtNu/ezkZbxjXIZXa5pH/T8+9IBUqwDVH/8RpnPEi0MwiU2Hfmc3RlMoESkdGHuyLy09aI/INrQiu7XdaWO/cU/MEAIRRjT2IbM4XXuca91PPY9tPjge2IfhttBrTNeq3H+vvE6g1OUAu+V0pLy1K+e6D8+v6BdxUvf3BfZvxCgTJDH6oEMjNA0o8xP+7oO2IESruLfT75R8UrrqcmCHrj0SdebE6fMUvuPPtoRMiz1x4YIdEr3Wjs01lMEbmRqetRoOSHwmh/KPi53nACZab4z1U+2WjLKIsf3zIN2/xoM5BKoMxVG8zVddn22f5Gu/3xeqkjKHN1LxjpdTF0mfa8uvP0g+B7xU+eT9Y4f+xuas7ct4Sf6463NBQoKVD6apDjrWHkQ3nRDR4Rp4gkzQd73DaMRxGOZU4uxrr50N8Y22X/iQsmShNdt3X/aK4rS52oDkSOpBpLK6hNFCj5sZSPHy+FLFBmqy2j7SPqOx/rkzaN7/sMBUpHCGDbH9/tgPfB3NQ/notB343HQnp8j2Dy0f3HLwi+U/zYjGhR9PbA8Bi4H/k5h2nS8xMFSgqUbGB5wEB/21rT5R3d3jHu58HVX5joSYwfmq83N4p1ycW68eib4TjFzHjoij1cumwcX97o/ON5KsW4dulcF0IQX5pz89JMvyf3eyELGtlqy2j/FCiTM8X2ljvfpPNsKsRz2PZzxyDb//j1faEKlPgeCTpjt45/7TUhWCHec3NZJgqUeSBO5RIAXjs9ZT/TftNxIjHmJGZO/2LzPTP+JsaizPS1MpXfeBThWObkomymuMpGPpjFFONiNVizC2fqOhQ1xu+Lez5+tCGqN1Ns52M+2WzL/MOBbTnf2nSht+cg9xi2fbbPfGuf48GeQu6REeT+g7T7Pk8w+P+1d+dvUlT3HoDv/8MMsyjIKiAiLiiooCyCxiW4R2AgKIRFQEEiqICKG0FFMa5Rg4nRGCOa+zz3/k/nPt+ae5ianp7pbhymerrfH/rpmqpTVafrvNUNnzpVZ9Xi9sgOWq3/dCovoBRQdvR/ZqbTyTjd6iqsGz+s68ZjM938TlZ94x9vQkr/cWqH/6h0ak+HyTpXm9mOxzY4l9vhXI46OJ+nNgRw7jv32+Xcb5d6uEAytd9BzfwbpVvKCCgFlAJKBi7LQDeGcD7z+KFst/xojvc54x9ygkr/waniPxbhzn8kJu8/Evmig/PZ+TzV53OYi1cY7ORHNYz3O1r1fOe+c36qz/l221/5O6jq89H+J+/fNdPtWAoohVOXFU5NN+jqO/lfcsK68cO6bjw2zrHJP8ccU8eUAQYYYIABBhhggAEGusWAgFJAKaBk4LIMdGMI5zOPH8p2y4+mz+kfiAwwwAADDDDAAAMMMMDA5Bv4rxkzZqSpekU35qnal/1MXbs61o41AwwwwAADDDDAAAMMMMAAAwwwwMDlGhBQTmFAe7mNZD0nOAMMMMAAAwwwwAADDDDAAAMMMMBApxoQUAoo9WplgAEGGGCAAQYYYIABBhhggAEGGGCgMgMCSvgqw9epqb/P5YoWAwwwwAADDDDAAAMMMMAAAwww0LwBAaWAUkDJAAMMMMAAAwwwwAADDDDAAAMMMMBAZQYElPBVhs+VhOavJDhWjhUDDDDAAAMMMMAAAwwwwAADDHSqAQGlgFJAyQADDDDAAAMMMMAAAwwwwAADDDDAQGUGBJTwVYavU1N/n+vKX9G6etbstPnJ7emp3+8b4zfmxbKrrp41Zpm2ufJt4xg7xgwwwAADDDDAAAMMMMAAA60aEFAKKIU4DEwrA3fcvSG98/Hf00ff/JJ2Hzo+pu67Dx0rlr3z57+lVWvWjVne6pek8n5YGWCAAQYYYIABBhhggAEGGLiyBgSUwikBDgPTxsCa9fem8xd+Tq+f+zKtWLV63HrHsijz4V8vptXrNo5bzg/Mlf2BcXwdXwYYYIABBhhggAEGGGCAgWYMCCinUTj1ySMD6X93DnZ02LJoydKi91v0jsuvD7/+Kb367ufp0a1Pp76+/o7+/M2ctJ1Q5tDx00X7zpk7r+n2nDtvQXr/Lz+kNz74Os2eM7fhelEmyr77xT/TnHnzG5bvhOPqM/jhZ4ABBhhggAEGGGCAAQYYmI4GBJQCyrYKbnJA+eq7n6Wh3YeK1879LxQBZQSWL77+furr62urOk/HE7/qOp/+4Kt05pNvW2rHnfuOFKHmqtVrm14vbvEONzv2PN/0OlUfG/v3jwkGGGCAAQYYYIABBhhggIFuMyCgFFC2VXCTA8p4jmD5ZOzt7U3PHn21CJs2PfDIqGXlcqbb/0u8f2CwuE37hZNnmm7HaP8/ffqP4rbtVtq4p6cnnT73ZTrzyd9TTLeyrrLtb0kbaSMGGGCAAQYYYIABBhhgoDMMCCgnIaD8aHN/+p+dg2nBVT3p7fv708WhwfTT0GB6/d7+tGhWfSiblvam85sH0i/bB9N/dgwW0/dc1zsmQPnnluHbuuPW7vFej988st6KeT1FuaPrxvYyjHmxjShTPoFbqf/11wxv/5V7+tLaxb3ps0cH0n+2D6RvfzeQdt8xM/X21P+85f1NND1eQBnr3Hzr7UVAWRtexrI7776n6F35/pf/Sue++jG9+Np76fY160d9zrzfuE380S07U/TSPPflj8VzCuN5hY8P7RpzC3m5PrH/Y6fPFdt/6/yF9MTQ7hTBWd5u+T2elXjs9Psp1yemY165TEyXt3/bHXelV97+c1GnNz/8urilvd72W6l/3l8rxyev08p778yZ6cHHtqQTZz4u6h+9Iw8eO52WXH/DmM98/fKbi3bctuvAqGV9/f3pj6+9m85fuJhiIJzy/hctub5Y55kDfxw1v1xmvOldB18s1o1jPV6ZmL9+SW/6cdtg8Vp/3cwJy060Hct+3XeA4+f4McAAAwwwwAADDDDAAAPdZ0BAOYkB5dkH+lOEfcc39BXBXYSB/3hqMM3uHw0rAsVY9sPWwXRqU386ubE//bB1OIh8+MbRwcjzd/ellzYMv/71/2Xy3/l99aKRkOzXBJTN1D8HlFH2x20DRQgb9Y9ANj7T3tVjg9FWvljKgV3tejmgrA2pNj34aBFARSi25/mX0x+ee6noMRe39m6477djgqZ8q/Cps5+mmI7bf19688NiG3sPvzKqfK7P8y+/VdySvO/IyWL70Zsvth+hZm09f7P5iWLZ2c++S3sOv1y8YjrK/2bzk6PKl7cf28zbf/fz74vyEYLWbr+V+se6rR6f2v01+runpzc9+8fh3q0RsD69/2g6fOKdov7RJrOvmTPqM6y/96Fi2cb7H740P3o37j1yoph//8Ojj1Hsf8XKO8c9Ho3qF8cwjv0tK++4tL9668S5GIbjFdP1ypg3+rvM8XA8GGCAAQYYYIABBhhggAEGJsOAgHKSAsoINQ6sGQnnembMSK9sHA48hm4bmd/XOyP9e1sOLkd6Ml4z0FOEmRFCjtcLsZlBci43oGy2/jmg/Hn7YLp53kgwGj1FLw4NpP/eMZhm/opelDmwq+0lGQHW/hdOFkHTPb/ZfCk8mjmzL539/Pv05vm/pqtnzb40f9bsa9JbH10oQsVyL8TYTgyaEj0gy8+yjPlbnzmQDrz4WhoYHBmIKNfnvS9+SEuuX35p+3Pmzi/2Gz0wy9uJ6QgXo05RJp+kuXwsK5fP24/BX5becNOl8vMXLirq+cHX/07ROzFvp9X6t3p88n5aec+B7O9+v/dSPWP9bbsOFu0VgWR5e7/bsaeYv/zmWy/N3/L0/mJerFMum6fzsySj52ue1+x7rBMBZWxjonXuXtxbnINxUSGmJyprmR9gBhhggAEGGGCAAQYYYIABBibPgIByEgPKa68eCRwD6coFw7dDn9g4ElDe9P+3YB9eOzIvgz6ydvgW7OVzRm8nL7/SAWUz9c8B5XsPju1hFre0R9AZZXKdW33PgV3tIDmnzn5WhExx63Y5cFy67MZifgyoU7uv7X94rli2ZOnIbcYR8MVt13FLd/T8q12n9u9cn+hBWbts96HjxfYXL112aVmuT23AGutGz84Iyq5bNhJ05u0fOTH2eYzRmzLKR5m871brn+vT7PHJ+2nlPXqfRsAat2iX17trw31F/Tc/MTRq/sEXXy+eQZmD4BxwRi/M8dpkKgLKct1NT96PjGPpWDLAAAMMMMAAAwwwwAADDDQyIKCcxICytufjnIEZxa2i5R6Uty8cvr3740cGUoSU5VfMi4Bv1cL6wdmVDiibqX8OKOMZlLW4xnvGZW25if7OgV0Ec+VX9CSMnnD9/QOj9nvTilVFuQjJ8qjf+T3ftn3jLStHrbPr4LFL6zy29ZkUQdqChYtGlcl1zPWpFzhGj8uoY9Qhl8/1iWV5Xn7P5cv1mWj7cet5bD+e2Zi3Ee+t1D/Xp5XjU95Xo+nBq64u6lgvYH3w0S3FsrUbHxhV/xi0JkLiJ3fsKXpZxjMno361bVvet4DSj1nZg2keGGCAAQYYYIABBhhggIHOMiCgvIIBZb2TJQeUEUSO94oy9dad6oCyXh2mKqAsB4IxwEwEdeVboHPdcgBXDjNrp8sBYqwXQdjj23YVvSjLZU+e+SSVw8MoO1GAmAPH8vZzfSYKKMvlJ9r+eAFlK/XP9Sl/ztrpcn3ycW32/YabVhRtE71Va9fZuf+FMe0WA/xEIFlbh3WbHhyzfnl7q1avLdb5Vbd4r1474T7K+zPdWT902lN7MsAAAwwwwAADDDDAAAPtbUBAWVFAuffOsT0QG50szQSUtzQxineUKe8rBvaJsLS2B2W5TJ6uIqCMEagj0Np/9NSoekedcgBXb7CaXOeJ3mMAl5tvuyPFcxE//Pqn4pmV0SswrzNRgHi5AWU5BJ1o++MFlLlu8d6o/r/2+JT3VW963aYHirapHfwnysbt+BFGRiiZ180jeG995tliXozyff7Cz8Xo33H7ei5X+54HSHpq575xy9Suk//Oz7e86daRnq55mff2/oHSPtqHAQYYYIABBhhggAEGGOgOAwLKKQ4o8zMoj64bCW2aPdmaCSiXXjP83MvT944NQN+8bziIXDp7dBDU7gFlBFevvvt5EWSVB6qJ45afsRhhXrPHcbxyORAs9yjMAeKEz6C8rt4zKI+PqU9+ZmW9Z1CWe4zm+uX61N7inZfXvufy5fpP5vGp3V/8/fCTO4qAcvW6jaM+7+DgVencV/9O0fu1vN7ajfcX5WNk8Tw/gucIoCOIzvNq3+fOX1iUOXT89LhlatfJfx86/kax7tx5C1peN2/De3f8IGpn7cwAAwwwwAADDDDAAAMMVGNAQDnFAWWM4v3T0GD6fstAmjMwEhT2985IERT+uG0gXd1XH8PZB4YDxtn9I+vVnjjRC/KfWwbSL9sH03WlIDJCyf/sGN5vbU/Jdg8o4zPGyN0RYu09cmJUyBSjVMfI2G//+Zs0a/acS8tipOwIx/706T9SuUfkgmsXp7iVu16gefDY6WIf5UFvckAZ+4jefvl451G5xx3F+7Pvxh3FO+qct5O332xA2Wr9Wz0+uV7xvvLOtensZ98Vx/C2O+66VOdymU0PPFIcs3LPxgiU8wBF8RzKcvkntv+hKB89IvP83Kvy5bc/ujQvLyu/v/7+X9K5r35MV5V6uJaX15uOkd0jKI116y0vz4tz8MCamcXrLqN4Nzxe5WNnuv53tuPiuDDAAAMMMMAAAwwwwAADzRkQUE5xQBkwn7xlZnFL9Q9bB9LJjf3p+Ia+9Lcnh59JuW/1zHGDgR0rh9f74rGB9NKGvkuvxbNGB5a/XT48EM/FoYFikJ5X7+1PF4eGt//Q8rHbnw4BZQRtb310oehFWQ4Q43je+9BjReh15pO/FyNlP/3s0RQDsUSgGYFY7ZfB0VNni2URYEZQuWPv4XT8jQ+KeS++/v6okaRzgBjh5ZlPvi0C0ugJGcFnbL/ereV5VOoI9/Y8/3LxiukoX3srdN5+swFlfJZW6n85xycfrz2HXy7qHPWO6Ty//D5n3vx09vPvi3LRy/Tp/UfTiXc+Lv5+4eSZUSOux3oxUndsb/acuaO2l3s53nHXhlHzy/t66LGtxbr59vDysvGmt+06WKxTG5TWK79m0fB5E487WD5n9DlVr7x5zf3IOE6OEwMMMMAAAwwwwAADDDDAQCMDAsoKAspolPuW9abzm/uLXo3RozJCws03jg0Pyw0YvS8P3dWXvntqeLTvPMjOippnSsY69yyN7Q8U24+ekzG9fkn9wXemQ0AZnymPCl0vLFuzblOKcDF62EVvxwgf19/7UN2w66qrZ6V4LmGEmB/+9WLx7MmYjtG/Z82+ZtQ6OUCM0HPFyjuL0aaj1+Rb5y+kJ4Z2jwngcnvdtf6+dOz0uaI+UaeYjnl5eX7P228loGyl/nk/rRyfvE4MTBPBaryiN2WeX/sePSCfe+nNIsCN0dZPnf207ojrsd5r731RBJq121h+y21FkBijedcuy39Hr9jo/RoB532/fXzccrl8hMFRNtYp91rNy2vfd90+fAEgzofaZf72Y8oAAwwwwAADDDDAAAMMMMDAlTMgoJyEgBLQKwe06mM7EiCOfaZk1XXrxv3PX3BtOv3BV0XwePiVt9Ott68ZEybG7eiHT7xTlIngOdZp5li99+DwIxQevrF+kN/MNpTp3O8CbattGWCAAQYYYIABBhhggIErZ0BAKaBsKrzp1pNwJKA85ji1ybkSz5WMHq0x+nfcel9rM+bFsrjdPHqb1i6v93f0To6exj9tG0iDM6/cF269fZvneDPAAAMMMMAAAwwwwAADDHS7AQFlm4Qu3Q6xXT+/gLJ9fyRiVO56PShjXqsjdq9aOPz8yaPr3N7drueierXvuahttA0DDDDAAAMMMMAAAwz8WgMCSgFlUz3Mfi206bq+gLI7vmR3ruorBq66Zb7bu6fruare3XGuamftzAADDDDAAAMMMMBAZxoQUAooBZQMMMAAAwwwwAADDDDAAAMMMMAAAwxUZkBACV9l+Fz16MyrHtpVuzLAAAMMMMAAAwwwwAADDDDAQCsGBJQCSgElAwwwwAADDDDAAAMMMMAAAwwwwAADlRkQUMJXGb5WknRlXXlhgAEGGGCAAQYYYIABBhhggAEGOtOAgFJAKaBkgAEGGGCAAQYYYIABBhhggAEGGGCgMgNTGlBKuTsz5dau2gVAvQIAAAlmSURBVJUBBhhggAEGGGCAAQYYYIABBhhg4HINCCil45Wl45eL1nq+8BhggAEGGGCAAQYYYIABBhhggIHOMSCgFFAKKBlggAEGGGCAAQYYYIABBhhggAEGGKjMgIASvsrwudLROVc6tKW2ZIABBhhggAEGGGCAAQYYYICByzUgoBRQCigZYIABBhhggAEGGGCAAQYYYIABBhiozICAEr7K8F1uqm49V2QYYIABBhhggAEGGGCAAQYYYICBzjEgoBRQCigZYIABBhhggAEGGGCAAQYYYIABBhiozEDlAeXipcvS1mcOpAcf25KuW7a8sgMhde+c1F1baksGGGCAAQYYYIABBhhggAEGGGBg+hioPKBctWZd+uibX4rX+QsX0+PbdgkpJfYMMMAAAwwwwAADDDDAAAMMMMAAAwx0iYHKA8pIs3t6etOS65en1899mc5f+DnNX7gIwC4B6GrG9Lmaoa20FQMMMMAAAwwwwAADDDDAAAMMXAkDbRFQ5g/25I49RU/KlXfeLaAUUDLAAAMMMMAAAwwwwAADDDDAAAMMMNAFBtoqoHxq574ioLz51tvh6wJ8OZj27uoLAwwwwAADDDDAAAMMMMAAAwww0L0G2iqgfPrZo0VAabCc7gXpy0jbM8AAAwwwwAADDDDAAAMMMMAAA91loK0Cyn1HThYB5fwF1+pBqQclAwwwwAADDDDAAAMMMMAAAwwwwAADXWCgrQLKvYdfKQLKufMWwNcF+FwN6a6rIdpbezPAAAMMMMAAAwwwwAADDDDAQD0DbRVQbnrgkSKgfHTL02lw8CohpZCSAQYYYIABBhhggAEGGGCAAQYYYICBDjfQVgFlT09P2vzEUDr35Y9FUPnRN78U76vWrAOxwyHWS8/Nc1WFAQYYYIABBhhggAEGGGCAAQYY6HwDbRVQzp2/ML323hfpzCffpl0HX0xDuw8Vr8VLlwkoBZQMMMAAAwwwwAADDDDAAAMMMMAAAwx0oIG2Cii3PnOg6DF5w023wtaB2Fzx6PwrHtpYGzPAAAMMMMAAAwwwwAADDDDAQKsG2iqg3H/0VBFQzpk3X0ApoGSAAQYYYIABBhhggAEGGGCAAQYYYKALDLRVQLn70PEioLx28XXwdQG+VtN05V2BYYABBhhggAEGGGCAAQYYYIABBjrPQFsFlPHMyRgYxy3enQfNl4c2ZYABBhhggAEGGGCAAQYYYIABBhioZ6CtAsonhnYXAeWtt6/Rg1IPSgYYYIABBhhggAEGGGCAAQYYYIABBrrAQFsFlPuOnCwCyptWrIKvC/DVS8zNcyWFAQYYYIABBhhggAEGGGCAAQYY6C4DlQeUi5cuS9v3PJdeOPWnIpx89d3P0syZfQJKASUDDDDAAAMMMMAAAwwwwAADDDDAAANdYKDygHLVmnXp/IWL6Y0Pvk479x1Jc+bOA68L4LkS0l1XQrS39maAAQYYYIABBhhggAEGGGCAgfEMVB5Qjlcx86FlgAEGGGCAAQYYYIABBhhggAEGGGCg8w0IKPVW1GOVAQYYYIABBhhggAEGGGCAAQYYYICBygwIKOGrDJ8rIJ1/BUQba2MGGGCAAQYYYIABBhhggAEGGGhkQEApoBRQMsAAAwwwwAADDDDAAAMMMMAAAwwwUJkBASV8leFrlJ5b7goLAwwwwAADDDDAAAMMMMAAAwww0PkGBJQCSgElAwwwwAADDDDAAAMMMMAAAwwwwAADlRkQUMJXGT5XQDr/Cog21sYMMMAAAwwwwAADDDDAAAMMMNDIgIBSQCmgZIABBhhggAEGGGCAAQYYYIABBhhgoDIDAkr4KsPXKD233BUWBhhggAEGGGCAAQYYYIABBhhgoPMNCCgFlAJKBhhggAEGGGCAAQYYYIABBhhggAEGKjMgoISvMnyugHT+FRBtrI0ZYIABBhhggAEGGGCAAQYYYKCRAQGlgFJAyQADDDDAAAMMMMAAAwwwwAADDDDAQGUGBJTwVYavUXpuuSssDDDAAAMMMMAAAwwwwAADDDDAQOcbEFAKKAWUDDDAAAMMMMAAAwwwwAADDDDAAAMMVGZAQAlfZfhcAen8KyDaWBszwAADDDDAAAMMMMAAAwwwwEAjAwJKAaWAkgEGGGCAAQYYYIABBhhggAEGGGCAgcoMCCjhqwxfo/TccldYGGCAAQYYYIABBhhggAEGGGCAgc43IKAUUAooGWCAAQYYYIABBhhggAEGGGCAAQYYqMyAgBK+yvC5AtL5V0C0sTZmgAEGGGCAAQYYYIABBhhggIFGBgSUAkoBJQMMMMAAAwwwwAADDDDAAAMMMMAAA5UZEFDCVxm+Rum55a6wMMAAAwwwwAADDDDAAAMMMMAAA51vQEApoBRQMsAAAwwwwAADDDDAAAMMMMAAAwwwUJkBASV8leFzBaTzr4BoY23MAAMMMMAAAwwwwAADDDDAAAONDAgoBZQCSgYYYIABBhhggAEGGGCAAQYYYIABBiozIKCErzJ8jdJzy11hYYABBhhggAEGGGCAAQYYYIABBjrfgIBSQCmgZIABBhhggAEGGGCAAQYYYIABBhhgoDIDAkr4KsPnCkjnXwHRxtqYAQYYYIABBhhggAEGGGCAAQYaGRBQCigFlAwwwAADDDDAAAMMMMAAAwwwwAADDFRmQEAJX2X4GqXnlrvCwgADDDDAAAMMMMAAAwwwwAADDHS+AQGlgFJAyQADDDDAAAMMMMAAAwwwwAADDDDAQGUGBJTwVYbPFZDOvwKijbUxAwwwwAADDDDAAAMMMMAAAww0MiCgFFAKKBlggAEGGGCAAQYYYIABBhhggAEGGKjMgIASvsrwNUrPLXeFhQEGGGCAAQYYYIABBhhggAEGGOh8AwJKAaWAkgEGGGCAAQYYYIABBhhggAEGGGCAgcoMCCjhqwyfKyCdfwVEG2tjBhhggAEGGGCAAQYYYIABBhhoZEBAKaAUUDLAAAMMMMAAAwwwwAADDDDAAAMMMFCZAQElfJXha5SeW+4KCwMMMMAAAwwwwAADDDDAAAMMMND5BgSUAkoBJQMMMMAAAwwwwAADDDDAAAMMMMAAA5UZEFDCVxk+V0A6/wqINtbGDDDAAAMMMMAAAwwwwAADDDDQyICAUkApoGSAAQYYYIABBhhggAEGGGCAAQYYYKAyAwJK+CrD1yg9t9wVFgYYYIABBhhggAEGGGCAAQYYYKDzDfwfWGtdKttEZJoAAAAASUVORK5CYII=;" vertex="1" parent="1">
          <mxGeometry x="-361.27" y="1430" width="501.27" height="90" as="geometry" />
        </mxCell>
      </root>
    </mxGraphModel>
  </diagram>
</mxfile>
